<?xml version="1.0" encoding="UTF-8" standalone="no"?>
<svg
   xmlns:dc="http://purl.org/dc/elements/1.1/"
   xmlns:cc="http://creativecommons.org/ns#"
   xmlns:rdf="http://www.w3.org/1999/02/22-rdf-syntax-ns#"
   xmlns:svg="http://www.w3.org/2000/svg"
   xmlns="http://www.w3.org/2000/svg"
   version="1.1"
   width="100%"
   height="100%"
   viewBox="0 0 761.26 790.26">
   <defs>
      <pattern id="diagonalHatch" patternUnits="userSpaceOnUse" x="0" y="0" width="105" height="105">
        <g style="fill:#ff0000;stroke:#999999;stroke-width:4">
            <path d="M0 5 l5,-5"/>
            <path d="M0 15 l15,-15"/>
            <path d="M0 25 l25,-25"/>
            <path d="M0 35 l35,-35"/>
            <path d="M0 45 l45,-45"/>
            <path d="M0 55 l55,-55"/>
            <path d="M0 65 l65,-65"/>
            <path d="M0 75 l75,-75"/>
            <path d="M0 85 l85,-85"/>
            <path d="M0 95 l95,-95"/>
            <path d="M5 100 l95,-95"/>
            <path d="M15 100 l85,-85"/>
            <path d="M25 100 l75,-75"/>
            <path d="M35 100 l65,-65"/>
            <path d="M45 100 l55,-55"/>
            <path d="M55 100 l45,-45"/>
            <path d="M65 100 l35,-35"/>
            <path d="M75 100 l25,-25"/>
            <path d="M85 100 l15,-15"/>
            <path d="M95 100 l5,-5"/>
        </g>
      </pattern>
   </defs>
  <g
     transform="translate(-387.87,-18.87)">
    <g
       class="states_provinces"
       style="fill:#DDDDDD;stroke:#7A797A;stroke-width:1;stroke-linejoin:round">
      <g class="IN_CH">
        <path
           d="m 614,182 0,1 0,1 0,1 -1,0 -1,0 0,-1 -1,0 0,-1 1,-1 1,0 1,0"
           id="path11" />
      </g>
      <g class="IN_DL">
        <path d="M 623,233 L 624,232 L 624,233 L 624,234 L 625,235 L 627,236 L 627,237 L 627,238 L 627,239 L 627,240 L 626,240 L 627,240 L 627,242 L 626,242 L 625,242 L 624,243 L 625,243 L 625,244 L 624,244 L 623,243 L 622,243 L 621,243 L 621,242 L 621,241 L 620,241 L 619,241 L 618,241 L 616,241 L 615,242 L 615,241 L 615,240 L 614,240 L 615,239 L 616,239 L 616,238 L 617,238 L 617,237 L 617,236 L 617,234 L 617,233 L 618,233 L 619,233 L 620,233 L 620,232 L 621,232 L 622,232 L 622,233 L 623,233 "/>
      </g>
      <g class="IN_HP">
        <path
           d="m 609,120 3,0 1,0 1,2 1,0 1,1 1,1 2,1 2,1 1,1 2,0 4,1 1,0 1,0 1,-1 1,0 1,0 1,-1 1,0 0,-1 1,0 1,0 0,-1 0,1 1,0 1,1 1,1 1,1 1,2 1,1 0,1 0,1 1,1 1,1 1,0 1,-1 1,0 0,-1 1,0 1,0 1,0 1,-1 1,0 0,-1 1,0 1,1 0,1 0,1 -1,0 -1,1 -1,1 0,1 0,1 0,1 1,0 1,-2 1,0 0,1 1,2 0,1 1,3 0,1 1,0 1,1 0,1 3,3 2,1 0,1 -1,1 0,1 0,1 0,1 -1,0 0,1 1,1 0,1 1,0 0,1 1,0 1,1 -1,1 -2,2 1,1 1,0 -1,1 0,1 0,1 0,1 1,0 1,0 1,0 1,0 0,1 1,1 1,1 1,1 0,1 -1,0 -1,0 -2,0 0,-1 -1,0 0,-1 -1,0 0,-1 -1,1 0,-1 -1,0 -1,0 -1,0 -1,0 -1,0 -1,0 -1,0 -1,-1 -1,0 0,-1 -1,0 -1,0 -1,0 -1,1 -1,0 -2,1 -1,1 -1,0 -1,1 -1,-1 -1,0 0,1 -1,0 -1,1 -1,2 -1,0 1,1 -1,0 -1,0 0,1 1,0 0,1 0,1 -1,0 0,1 -1,1 0,1 1,1 0,1 0,1 1,0 0,1 -1,0 1,1 0,1 1,0 0,1 -1,0 -2,1 -1,0 -1,0 0,1 -1,0 -1,0 1,1 -1,-1 -1,0 -1,0 -1,0 0,-1 -1,1 -1,0 0,-1 -1,0 -1,0 -1,-1 -1,1 0,-1 -2,-1 0,-1 0,-1 1,0 -1,-1 1,0 0,-1 -1,0 0,-1 -1,0 -1,-1 -1,0 0,-1 -1,0 -1,-1 0,-1 -1,0 -1,0 -1,-1 -1,0 -2,-1 -2,-1 0,-1 -1,0 0,-1 1,0 0,-1 -1,0 0,-1 0,-1 1,0 0,-1 -1,0 0,-1 -1,0 -1,0 0,-1 0,1 -1,0 0,-1 -1,0 -1,-1 -1,-2 -1,0 0,1 0,1 -1,0 0,1 -1,0 -1,0 -1,0 0,-1 -1,0 0,-1 0,-1 -2,-4 -3,-5 0,-1 0,-1 1,0 -1,-2 -1,-1 -1,0 0,-1 -2,0 -1,-1 -1,0 0,-1 -1,1 0,-1 -2,0 1,-2 1,-1 -1,0 -1,-1 1,-1 2,0 0,-1 1,0 1,-1 2,-1 1,-1 -1,-2 0,-1 0,-1 1,-1 1,0 0,-1 -1,-1 0,-1 0,-1 0,-1 -1,0 0,-1 -1,-1 0,-1 -1,0 1,0 0,-1 1,0 1,1 1,0 0,1 0,-1 1,0 2,-1 1,-1 2,-1 1,0 1,-1 1,-1 0,-1 2,-1 1,0 3,-1 1,0 2,1"
           id="path17" />
      </g>
      <g class="IN_HR">
        <path
           d="m 615,180 1,0 1,0 0,1 1,1 1,0 0,1 1,0 1,1 1,0 0,1 1,0 0,1 -1,0 1,1 -1,0 0,1 0,1 2,1 0,1 1,-1 1,1 1,0 1,0 0,1 1,0 1,-1 0,1 1,0 1,0 1,0 1,1 0,2 -1,1 -1,1 -2,1 -1,1 0,1 -1,0 -1,1 0,1 -1,0 0,1 -1,0 0,1 -1,0 0,1 -1,3 0,1 -1,0 0,1 -1,1 1,0 -1,1 0,1 0,1 -1,0 0,1 1,0 -1,1 1,0 1,0 -1,1 0,1 -1,0 1,0 1,0 1,0 0,1 -1,0 0,1 0,1 1,0 -1,0 0,1 0,4 1,0 0,2 1,1 -1,1 1,1 0,1 -1,1 -1,0 0,-1 -1,0 -1,0 0,1 -1,0 -1,0 -1,0 0,1 0,2 0,1 0,1 -1,0 0,1 -1,0 -1,1 1,0 0,1 0,1 1,-1 2,0 1,0 1,0 1,0 0,1 0,1 1,0 1,0 1,1 1,0 0,-1 -1,0 1,-1 1,0 1,0 1,0 1,1 -1,0 1,0 1,0 0,1 1,0 0,1 1,0 -1,1 0,1 0,1 1,0 1,1 -1,0 0,1 1,0 -1,1 0,1 0,1 -1,-1 0,1 0,1 1,0 0,1 0,1 0,1 -1,0 0,1 -1,0 -1,1 -1,0 -1,0 -1,1 -1,0 -1,0 -1,0 -1,0 -1,0 -1,0 -1,1 1,0 1,1 -2,0 -1,0 0,1 -1,0 -1,1 0,-1 1,0 -1,-1 0,-2 1,0 0,-1 0,-1 0,-1 0,-1 0,-1 0,-1 0,-1 0,-1 0,-1 -1,-1 -1,0 0,-1 -1,0 -1,1 -1,1 -1,1 -1,0 0,1 -1,0 0,1 1,0 0,1 -1,0 -1,0 -1,1 0,-1 -1,-1 -1,0 -1,0 0,-1 1,0 -1,-1 1,0 -1,-1 -1,0 -1,0 0,-1 -1,0 -1,0 0,1 1,0 0,1 0,1 1,0 -1,1 -1,-1 -1,0 -1,0 -1,0 0,1 0,1 0,1 0,1 0,1 1,0 0,1 0,1 -1,0 -1,0 0,-1 -1,0 -2,0 -1,0 0,-1 -1,-1 0,-1 1,0 0,-1 0,-1 1,-1 0,-1 -1,1 -1,-1 1,-1 1,0 0,-1 1,0 0,1 1,0 -1,-1 0,-1 -1,-1 -2,-2 -1,-1 -1,-1 -1,0 -1,0 0,-1 -1,0 0,-1 -1,0 -1,-1 0,-1 -1,0 0,-1 -1,0 0,-1 -1,-3 -1,-1 0,-1 0,-1 -1,-1 1,-1 0,-1 -1,0 -1,-1 0,-1 -1,0 0,-1 0,-1 -1,0 0,-1 1,0 0,-1 0,-1 -1,0 0,1 -1,0 0,-1 0,-1 -1,1 -1,0 -1,0 -1,0 -1,0 0,1 -1,0 -1,0 0,-1 -1,-1 -1,1 0,-1 -1,0 0,-1 -1,-1 -1,0 -1,0 -1,0 -1,1 -1,-1 -1,0 0,1 -1,0 -1,0 0,-1 -1,0 0,-1 -1,0 0,-1 1,0 1,0 0,-1 0,-1 0,-1 -1,0 1,-3 0,-1 0,-1 -1,0 -1,1 -1,0 0,-1 -1,0 1,0 0,-1 0,-1 1,0 1,0 0,-1 -1,0 0,-1 0,-1 2,1 1,0 1,0 0,-1 1,0 1,0 1,-1 1,0 0,1 1,0 1,0 1,1 1,1 1,0 1,0 1,0 0,-1 0,1 0,1 0,1 1,0 1,0 0,-1 1,0 0,1 0,1 1,0 0,1 -1,0 0,1 -1,0 1,1 -1,0 1,0 0,1 0,1 1,0 1,0 0,-1 1,-1 1,0 0,-1 0,-1 1,0 0,-1 1,0 0,-1 1,0 1,1 1,0 1,0 1,0 1,0 1,0 0,-1 1,0 1,-1 1,0 0,1 1,0 0,1 1,1 1,0 1,0 0,-1 1,0 1,0 1,-1 1,0 1,-1 1,0 0,-1 -1,-1 0,-1 1,-2 0,-1 1,0 0,-1 -1,0 0,-1 1,0 0,1 1,0 1,0 0,-1 1,0 0,1 1,0 0,-1 0,-1 1,0 0,1 0,1 1,0 0,1 1,0 2,-1 1,-1 0,-1 0,-1 -1,0 -1,0 -1,0 1,0 0,-1 1,0 1,0 0,-1 1,0 1,-1 1,0 0,-1 -1,0 0,-1 1,0 1,0 1,0 1,0 0,1 0,1 1,0 0,-1 0,-1 0,-1 0,-1 0,-1 0,-1 0,-1 0,-1 -1,0 0,-1 -1,0 0,-1 0,-1 0,-1 0,-1 -1,0 0,-1 0,-1 1,0 1,1"
           id="path20" />
      </g>
      <g class="IN_AP">
        <path
           d="m 722,574 -1,0 -2,-1 1,-1 1,0 1,1 1,1 -1,0"
           id="path23" />
        <path
           d="m 657,469 1,0 0,-1 1,0 1,0 1,0 1,1 1,0 1,0 1,0 1,1 1,0 0,1 0,2 1,0 1,0 0,1 1,0 0,1 1,0 1,-1 0,-1 2,0 1,0 1,0 1,0 0,1 1,0 2,0 0,1 1,0 0,1 1,0 2,0 1,0 1,0 1,0 0,-1 2,-1 1,0 1,0 1,0 0,1 1,0 0,1 1,0 0,1 1,0 1,1 0,1 0,1 0,1 0,1 -1,0 0,1 0,1 0,1 -1,1 -1,1 0,1 1,0 1,0 0,1 1,1 0,1 0,2 -1,0 0,1 1,1 1,0 1,1 1,1 2,1 2,-1 1,0 1,0 0,1 0,1 1,0 0,1 1,0 1,0 1,0 1,0 1,1 1,0 1,2 1,0 0,1 1,1 0,1 1,0 0,2 1,1 0,1 -1,0 0,1 1,0 1,0 0,-1 1,0 0,1 0,1 1,0 1,0 1,0 0,1 -1,0 0,1 0,1 1,0 0,1 0,1 0,3 1,1 1,0 1,0 1,-1 1,0 1,0 1,1 1,0 1,0 2,0 2,0 1,0 0,-1 1,1 1,0 1,0 0,-1 1,0 0,-1 1,0 1,0 0,-1 1,0 1,-1 3,-1 1,0 1,-1 1,-1 1,0 1,1 1,0 1,1 1,0 1,-1 1,-1 0,1 0,-1 1,0 0,-1 -1,0 1,-1 -1,-1 0,-1 1,-1 0,-1 0,-1 0,-1 1,0 0,-1 -1,0 1,0 1,-2 0,-1 1,0 1,0 0,1 0,1 0,1 1,0 1,1 0,1 0,1 0,1 1,0 0,1 1,0 0,-1 0,-1 1,0 1,-1 1,0 0,-1 0,-1 1,-1 1,1 1,0 0,1 1,0 1,0 1,0 1,0 0,-1 0,-1 0,-1 1,-1 0,-1 -1,0 0,-1 -1,0 1,0 0,-1 0,-1 1,0 0,-1 1,-1 1,0 1,0 2,0 0,-1 1,0 1,-1 1,0 0,-1 0,-1 -1,0 -1,-1 0,-1 0,-1 1,0 0,1 1,0 1,0 0,1 1,-1 0,-1 0,-1 1,0 0,1 1,0 0,-1 1,0 0,-1 0,-1 1,0 0,1 1,0 0,1 1,1 0,1 1,1 1,0 -1,-1 1,-1 1,1 0,1 0,1 1,0 0,1 1,1 0,1 2,0 1,0 1,-1 1,0 0,1 1,0 1,0 1,0 2,0 1,0 1,-1 1,-1 0,-1 1,0 1,-1 0,-1 0,-1 1,0 1,0 0,-1 1,0 2,-1 1,0 0,-1 0,-1 1,0 1,0 0,1 0,1 0,-1 -1,0 0,1 0,1 1,-1 0,1 -1,1 -1,1 0,1 -1,0 -1,1 -2,3 -2,3 -1,0 0,1 -1,1 -1,1 -1,0 0,1 -1,0 -1,0 0,1 1,0 1,-1 1,-1 0,1 -2,0 -1,2 -1,1 -1,1 -1,1 0,1 -1,1 -8,3 -4,2 -1,1 0,1 -1,0 0,1 -1,1 -1,0 0,1 -1,0 0,1 0,1 -1,0 -1,2 -1,0 0,1 -1,0 0,-1 -1,0 0,1 1,0 1,0 -1,1 -1,0 -1,0 1,1 -1,0 0,1 -1,0 -2,1 -1,0 -1,1 -1,1 -2,1 -1,0 -1,1 -1,0 -1,1 -7,3 0,1 -1,1 -1,0 0,1 -1,1 -1,0 0,1 -1,1 -1,1 0,1 1,1 1,0 0,1 1,-1 0,1 0,-1 0,-1 0,-1 0,1 0,1 0,2 0,1 0,1 0,1 -1,1 0,1 0,-1 -1,0 0,1 1,0 0,1 -1,0 -2,1 0,1 -1,0 -1,0 -1,1 -1,0 -1,0 0,1 -1,0 -1,1 -1,0 -1,0 -2,1 -1,1 -1,0 0,-1 -1,0 -1,0 -1,0 0,-1 -1,0 0,1 -1,-1 -1,0 -1,1 0,-1 -1,0 -1,0 -1,0 -1,1 -1,0 0,1 1,0 -1,1 0,1 -1,2 0,1 -1,1 0,1 0,1 -1,1 -1,1 -1,0 0,1 -1,1 0,1 -1,0 0,-1 -1,0 -1,0 0,-1 1,-2 -1,-1 0,-1 0,1 0,-1 0,1 0,1 0,1 -1,2 -1,2 0,1 0,-2 0,-1 -1,-1 0,-1 -1,0 -1,0 -1,0 0,1 -1,0 -1,0 -1,0 -1,0 0,1 -1,0 -1,1 -1,0 -1,1 -2,1 0,1 -1,3 -1,0 0,1 0,1 0,1 -1,0 -1,1 0,1 -1,2 0,2 -1,3 0,2 0,1 1,1 0,1 1,4 0,1 0,1 1,0 0,1 0,1 0,1 -1,0 1,0 1,0 0,1 -1,2 0,2 0,1 -1,2 -1,0 0,1 -1,0 0,1 1,0 0,-1 1,0 0,-1 0,1 0,1 0,1 1,3 0,1 2,4 0,1 0,1 0,1 0,1 0,1 1,1 0,2 -1,-2 -1,-1 0,-1 -1,-1 -1,0 0,2 0,1 0,-1 0,-1 -1,0 0,1 -1,1 1,1 0,1 1,1 1,0 2,0 0,1 1,0 -1,0 -1,0 -1,0 -1,0 -1,0 0,-1 1,0 0,-1 -1,0 -1,0 0,1 0,1 -1,0 -1,0 0,1 0,1 -3,2 -1,0 -1,0 -1,0 0,1 1,0 0,1 -1,0 -1,0 0,-1 0,-1 -1,0 -2,1 0,-1 -1,0 0,-1 -1,0 -1,0 -1,0 0,1 0,1 0,1 -1,1 -1,0 -1,1 -1,0 -1,0 -1,2 -1,0 0,1 -1,0 -1,0 -1,0 -1,-1 -1,0 0,-1 -1,0 0,1 0,1 -1,0 0,-1 -1,0 -1,0 -1,0 -1,0 -1,0 0,1 -1,0 0,1 -1,0 0,1 0,1 0,2 -1,2 -1,1 -1,0 0,-1 0,1 0,1 -1,0 -1,1 -1,0 -1,0 -2,-1 -1,-2 0,-1 0,-1 1,0 1,0 0,-1 1,0 0,-1 1,0 1,1 1,0 -1,-1 -1,0 0,-1 1,0 0,-1 1,0 0,-1 0,-1 1,0 0,-1 0,-1 1,0 0,-1 0,-1 0,-1 1,0 -1,0 0,-1 -1,1 0,-1 -1,0 -1,0 0,-1 -1,0 0,1 0,-1 -1,0 0,-1 0,-1 0,-1 0,-1 0,-1 0,-1 0,-1 -1,1 0,-1 -1,0 0,1 -1,0 0,-1 -1,0 -1,0 -1,-1 -1,0 -1,0 0,-1 1,0 0,-1 0,-1 0,-1 0,-1 -1,-1 -1,0 -1,0 -1,0 0,1 -1,0 0,-1 1,-1 0,-1 -1,0 0,1 -1,0 -1,-1 -1,0 0,1 0,1 0,1 -1,0 -1,1 -1,0 0,1 -1,-1 0,1 -1,0 0,1 -1,0 -1,0 0,1 -1,0 0,-1 0,1 -1,0 0,-1 0,-1 0,-1 -1,0 0,-1 -1,0 -1,0 -1,0 0,-1 -1,0 -1,0 -1,0 0,-1 -1,0 0,1 -1,0 0,1 1,0 0,1 0,1 -1,0 -1,0 -1,0 -1,0 0,-1 -1,0 0,-1 1,0 0,-1 1,0 0,-1 -1,-1 0,-1 -1,0 0,-1 0,-1 -2,-2 1,-1 1,0 1,0 0,1 0,1 0,1 1,0 1,1 1,0 0,1 1,0 1,0 2,-1 1,0 0,1 1,0 0,1 0,1 1,0 0,1 1,0 0,-1 0,-1 0,-1 -1,0 0,-1 -1,0 0,-1 1,-1 -1,0 0,-1 1,0 0,-1 1,0 1,0 1,0 0,-1 -1,0 0,-1 1,0 0,-1 -1,0 -1,0 0,-1 -1,0 0,1 1,1 0,1 -1,0 0,-1 -1,-1 -1,0 -1,0 0,-1 -1,0 -1,0 -1,0 -1,1 0,1 0,1 -1,0 -1,0 0,-1 -1,0 -2,0 0,-1 1,0 -1,0 0,-1 -1,0 0,-1 0,-1 1,0 1,-1 0,-1 -1,0 -1,0 -1,0 0,-1 -1,0 0,-1 -1,0 0,-1 0,-1 0,-1 0,-1 1,0 -1,-1 1,0 0,-1 1,-2 0,-1 0,-1 -1,0 -1,-1 -1,0 1,0 0,-1 0,-1 1,-1 2,2 1,0 1,0 1,0 1,0 0,1 1,0 0,-1 1,0 0,-1 0,-1 1,0 0,-1 0,-1 0,-2 -1,-1 0,-1 -1,0 -1,0 0,-1 0,-1 0,-1 -1,0 0,-1 0,-1 1,1 0,-1 0,-1 0,-1 0,-1 1,-1 0,1 1,0 0,-1 -1,-1 0,-1 -1,0 0,-1 0,-1 1,-1 1,-1 1,-1 1,0 2,-1 0,1 1,0 1,0 3,0 1,0 0,-1 0,-2 0,-1 0,-2 0,-1 0,-1 1,0 0,-1 1,0 0,-1 0,-1 -2,0 -2,0 -3,-1 -1,-1 1,0 1,-1 1,-1 1,0 0,-1 1,0 0,-1 0,-1 -1,0 1,-1 0,-1 -1,0 0,-1 0,-1 1,0 0,-4 0,-1 1,-1 -1,-1 0,-1 0,-1 -1,0 -1,-1 0,-1 4,-4 0,-1 0,-1 1,0 1,0 0,-1 2,0 0,-2 1,0 -1,0 -1,0 -1,0 -1,0 -1,0 -1,0 0,-1 -1,0 -1,-1 1,0 0,-1 1,-1 1,-1 1,0 -1,-1 0,-1 0,-1 1,0 2,-1 0,-1 0,-1 0,-1 -1,0 0,-1 -1,0 0,-1 1,0 0,-1 0,-1 -1,-1 1,-1 0,-1 -1,0 0,-1 0,-1 -1,0 0,-1 1,0 0,-1 0,-1 0,-1 1,0 0,-1 1,0 1,0 1,0 0,-1 0,-1 0,-1 1,-1 1,0 1,-2 1,0 0,-1 1,0 0,-1 -1,-1 0,-1 -1,0 0,-1 -1,0 0,-1 -1,0 0,-1 1,0 0,-1 1,0 0,-1 0,-1 1,-1 0,-1 1,-1 -1,0 1,-1 1,0 1,0 1,1 1,0 0,1 1,0 1,0 1,0 0,-1 0,-1 0,-1 1,-1 0,-1 1,0 1,-1 1,0 0,-1 0,-1 0,-1 0,-1 1,-1 1,0 0,-1 0,-1 -1,0 -1,-2 0,-1 0,-1 1,1 1,0 0,1 2,1"
           id="path25" />
        <path
           d="m 755,550 1,0 0,-1 1,0 0,-1 -1,0 0,1 -1,0 -1,0 1,-1 -1,0 0,1 1,0 0,1"
           id="path27" />
      </g>
      <g class="IN_KL">
        <path
           d="m 567,654 1,0 1,0 0,1 1,1 0,-1 1,1 1,0 2,0 -1,1 0,1 1,1 1,1 1,-1 0,1 -1,1 0,1 1,0 0,1 0,1 1,0 1,0 0,1 3,2 0,1 1,0 1,1 1,0 1,1 1,0 1,1 0,1 1,1 1,0 1,0 2,1 1,-1 1,0 1,0 0,1 0,1 0,1 1,0 0,-1 1,0 0,1 1,0 0,1 1,0 1,0 0,1 1,0 0,1 1,0 0,-1 1,0 0,1 0,1 0,1 1,0 -1,0 -1,0 0,1 -1,1 -1,0 0,-1 -1,0 0,1 0,1 0,1 1,1 3,1 1,0 1,0 0,1 1,1 1,0 -1,1 -1,1 -1,1 0,1 1,0 0,-1 1,0 0,1 1,0 1,0 1,0 1,-1 1,0 0,1 0,1 1,1 0,1 1,1 -1,0 -1,0 -1,0 0,1 0,1 1,1 2,1 1,0 0,1 1,0 0,1 1,0 0,1 0,1 -1,0 0,1 0,1 -1,0 0,3 0,1 0,1 0,1 0,1 0,1 0,1 1,0 1,1 0,1 1,0 1,0 1,-1 1,-1 1,0 1,0 1,-1 1,0 1,1 0,1 0,1 1,0 0,1 -1,3 -1,0 1,1 0,2 0,1 0,1 0,1 0,1 0,1 -1,4 0,1 1,0 0,1 1,0 1,-1 1,0 0,1 1,1 0,1 -1,1 -1,2 0,1 -2,5 0,1 -1,1 -1,1 1,2 0,1 1,0 0,1 0,2 -1,1 -1,1 0,1 1,0 0,1 1,1 1,1 0,1 -1,0 0,1 -1,0 0,1 0,1 -1,0 0,1 0,1 -1,0 0,1 -3,-3 -1,0 -2,-3 -2,-2 0,-1 -2,-2 -1,-1 -1,-2 -1,0 -2,-2 0,-1 1,1 0,-1 1,0 -1,0 0,-1 2,0 -1,-1 1,0 -1,0 -1,0 -1,1 0,-1 0,1 0,1 -1,-1 0,-1 0,-1 -1,0 0,-2 0,-1 0,1 0,-1 -1,-1 0,-1 -1,0 1,2 -2,-4 -1,-5 -1,-3 0,-1 0,-4 -1,-2 0,-1 0,-1 1,0 0,1 -1,0 0,1 1,0 0,1 1,0 -1,-1 1,0 0,1 0,4 1,0 0,-1 -1,-2 1,0 -1,-1 0,-1 0,1 1,0 0,1 0,1 0,1 0,1 1,0 0,1 -1,0 0,1 0,2 0,1 2,0 1,0 1,-1 -1,0 -1,-1 0,1 -1,-1 1,0 0,-1 -1,-1 0,-1 0,-1 0,-1 0,-1 0,-1 -1,-1 0,-1 -1,-1 -1,0 0,-1 0,-1 -1,0 0,-2 -1,0 0,-1 0,1 0,1 1,0 0,1 0,1 -1,-1 -1,-2 0,-1 1,-1 1,0 0,-1 -1,0 0,-1 0,1 0,1 -1,0 0,-1 -1,-1 0,-2 -1,-1 -1,-1 0,-1 0,-1 0,-1 -1,0 0,-1 0,-1 -2,-3 0,-1 0,-1 -1,0 0,-1 -1,-2 -1,-5 -2,-5 0,-1 0,-1 -1,0 0,-1 -1,-1 -1,0 -1,-1 0,-1 0,-1 -2,-3 0,-1 -4,-4 0,1 0,-1 -1,0 0,-1 2,0 0,-1 -1,0 -1,0 -1,0 0,-1 1,0 0,-1 -1,0 1,-1 -1,0 1,-1 1,0 1,0 0,-1 -1,0 -1,0 -1,1 -1,0 -1,0 0,2 0,1 0,-1 -1,0 0,-1 -1,-2 0,-2 0,-1 0,1 -1,0 0,-1 0,-1 -2,-3 0,-1 -1,0 0,-1 -1,-1 -2,-5 0,-1 1,0 1,0 0,1 1,0 1,0 0,1"
           id="path30" />
      </g>
      <g class="IN_LD">
        <path
           d="m 516,769 0,1 -1,0 0,-1 1,0 0,-1 1,0 -1,1"
           id="path33" />
        <path
           d="m 532,720 -1,0 1,0"
           id="path35" />
        <path
           d="m 505,710 0,-1 0,1"
           id="path37" />
        <path
           d="m 503,704 -1,0 1,0"
           id="path39" />
        <path
           d="m 532,702 0,1 0,-1"
           id="path41" />
        <path
           d="m 493,702 0,1 0,-1 0,-1 1,0 -1,1"
           id="path43" />
        <path
           d="m 509,693 -1,0 1,-1 0,-1 0,1 0,1"
           id="path45" />
      </g>
      <g class="IN_OR">
        <path
           d="m 864,403 1,0 1,0 3,1 1,1 1,1 1,1 1,0 2,1 1,0 2,1 1,1 0,1 0,1 0,1 1,1 1,0 0,-1 1,0 0,-1 1,0 1,1 1,0 0,1 0,1 0,1 1,0 4,1 0,1 0,1 1,1 0,1 1,0 -1,1 -1,0 -2,1 -1,0 -1,0 -1,0 -1,0 -2,1 -1,1 -4,4 -1,2 -1,2 0,2 3,6 0,1 0,1 -1,0 -1,0 0,1 1,0 1,0 1,0 0,1 -1,0 0,1 1,0 1,0 0,-1 0,1 -1,0 0,1 -2,0 -4,3 0,1 -1,0 0,1 0,2 1,-1 1,0 0,-1 0,1 0,1 -1,1 -1,0 -1,1 1,0 1,-1 -1,1 -3,1 -1,1 -1,0 -1,0 0,1 0,1 -1,1 -1,2 -1,0 1,0 0,1 -1,0 -1,-1 -2,-1 -1,0 -1,-1 -1,0 0,-1 0,1 0,1 1,0 1,0 0,1 1,0 1,0 0,1 1,0 1,0 -3,2 -4,1 -1,1 0,-1 -1,0 0,1 -1,0 -3,1 -1,0 -1,0 0,1 -1,0 -1,0 -1,0 -2,1 1,0 0,-1 -1,1 -2,1 -1,0 -1,0 -1,0 0,-1 1,0 2,-1 0,1 -1,0 2,-1 0,-1 0,-2 -2,-1 -1,0 -1,1 -1,1 -2,1 -1,0 -1,1 -1,1 0,1 0,1 -1,0 0,1 0,1 -1,0 0,1 0,1 1,0 0,-1 1,0 0,-1 1,0 -1,0 0,-1 1,0 0,-1 0,-1 1,0 1,1 1,-1 1,0 1,0 0,1 -1,0 0,1 -1,0 0,-1 -1,0 0,1 0,1 1,0 6,-3 -1,0 -2,1 -2,1 -1,1 -2,1 -1,0 -1,1 -3,3 -2,1 -3,3 -2,2 -1,1 0,-1 0,-1 -1,0 -1,0 0,1 0,1 -1,0 -2,1 -1,0 0,1 -1,0 -1,0 0,1 0,1 -1,1 -1,0 0,1 -1,1 -1,1 -1,0 -2,0 -1,0 -1,0 -1,0 0,-1 -1,0 -1,1 -1,0 -2,0 0,-1 -1,-1 0,-1 -1,0 0,-1 0,-1 -1,-1 -1,1 1,1 -1,0 -1,-1 0,-1 -1,-1 0,-1 -1,0 0,-1 -1,0 0,1 0,1 -1,0 0,1 -1,0 0,-1 -1,0 0,1 0,1 -1,1 0,-1 -1,0 -1,0 0,-1 -1,0 0,1 0,1 1,1 1,0 0,1 0,1 -1,0 -1,1 -1,0 0,1 -2,0 -1,0 -1,0 -1,1 0,1 -1,0 0,1 0,1 -1,0 1,0 0,1 1,0 0,1 -1,1 0,1 0,1 0,1 -1,0 -1,0 -1,0 -1,0 0,-1 -1,0 -1,-1 -1,1 0,1 0,1 -1,0 -1,1 -1,0 0,1 0,1 -1,0 0,-1 -1,0 0,-1 0,-1 0,-1 -1,-1 -1,0 0,-1 0,-1 0,-1 -1,0 -1,0 0,1 -1,2 -1,0 1,0 0,1 -1,0 0,1 0,1 0,1 -1,1 0,1 1,1 -1,1 1,0 0,1 -1,0 0,1 0,-1 -1,1 -1,1 -1,0 -1,-1 -1,0 -1,-1 -1,0 -1,1 -1,1 -1,0 -3,1 -1,1 -1,0 0,1 -1,0 -1,0 0,1 -1,0 0,1 -1,0 -1,0 -1,-1 0,1 -1,0 -2,0 0,-1 0,-1 0,-1 1,1 1,-1 0,-1 0,-1 0,-1 0,-1 1,0 0,-1 0,-1 1,-1 -1,0 0,-1 1,0 0,-1 1,0 2,-1 0,-1 1,0 1,0 0,-1 1,-1 0,-1 1,0 1,-1 0,-1 1,0 1,-1 1,0 0,-1 -1,0 -1,-1 1,0 1,-1 1,-1 1,0 1,0 0,-1 1,0 1,0 0,-1 0,-1 0,-1 1,-1 1,0 0,-1 0,-1 0,-1 -1,-1 0,-1 -1,0 0,-1 0,-1 0,-1 0,-1 0,-1 0,-1 -1,-1 1,0 0,-1 0,-1 -1,0 -1,-1 -1,-1 0,-2 0,-1 0,-1 0,-1 0,-1 0,-1 -1,0 -1,0 -1,-1 0,-1 -2,-1 -1,0 0,-1 0,-1 1,-1 0,-1 1,0 1,-1 1,0 1,1 0,1 1,0 0,-1 1,0 1,1 1,0 0,1 1,0 1,0 0,1 1,3 1,0 1,-1 1,-1 2,1 1,0 1,0 1,0 0,1 0,1 0,1 1,-1 1,0 0,-1 1,0 0,-1 0,-1 0,-1 0,-1 0,-1 -1,0 -1,1 -1,0 0,-1 -1,0 -1,0 -1,-1 -1,0 0,-1 0,-2 0,-1 0,-1 0,-1 0,-1 0,-1 0,-2 0,-1 0,1 -1,0 0,-1 0,-1 -1,0 0,-1 0,-2 0,-1 0,-1 0,-1 0,-3 1,0 0,1 1,0 1,-1 1,-1 0,-1 1,0 1,0 1,-2 0,-2 1,0 0,-1 0,-1 2,0 1,0 0,1 1,0 0,-1 1,0 3,0 1,0 0,1 1,0 1,0 1,0 1,0 1,-1 1,-2 1,-1 0,-1 0,-1 1,0 1,1 1,0 0,-1 0,-1 -1,-1 -1,-1 0,-1 1,0 0,-1 0,-1 3,-3 0,-1 0,-1 0,-1 1,0 0,1 0,-1 1,0 1,-1 0,-1 0,-1 -1,0 -1,-1 0,-1 1,0 0,-1 1,0 0,-1 -1,0 0,-1 2,-2 1,0 0,-1 2,0 2,-2 1,-1 1,0 1,0 1,0 1,-1 0,-1 0,-1 -1,-1 0,-1 1,1 1,0 1,0 1,2 0,1 1,0 1,1 1,0 2,1 3,0 2,-1 0,-1 0,-1 1,0 5,0 1,0 1,0 2,0 1,0 1,0 1,0 1,-1 1,-1 0,2 1,1 0,1 0,1 -1,1 -1,2 -1,1 0,1 0,1 1,-1 1,0 1,0 0,1 2,1 1,1 0,-1 1,-1 1,-1 1,0 1,0 0,-1 1,0 1,0 2,2 2,0 1,0 1,0 1,0 1,0 0,-1 1,0 0,1 -1,0 0,1 0,1 2,1 1,-1 1,0 1,-2 0,-1 0,-1 1,0 0,-1 -1,-1 0,-1 1,0 0,-1 0,-2 -1,-1 0,-1 -1,0 0,-1 1,0 1,0 1,-1 1,0 1,1 4,2 1,1 0,1 1,0 1,1 1,0"
           id="path48" />
      </g>
      <g class="IN_DN">
        <path
           d="m 517,456 1,0 0,1 -1,0 -1,1 -1,0 1,1 0,1 1,0 0,-1 1,0 1,0 0,2 0,1 -1,1 0,-1 -1,0 -1,0 -1,0 -1,0 0,-1 -1,-1 0,-1 0,-1 -1,0 0,-1 1,0 0,-1 1,0 1,0 1,-1 0,1 1,0"
           id="path51" />
      </g>
      <g class="IN_KA">
        <path
           d="m 630,508 1,0 1,-1 1,1 1,0 0,1 -1,1 1,1 0,1 0,1 -1,0 0,1 1,0 0,1 1,0 0,1 0,1 0,1 -2,1 -1,0 0,1 0,1 1,1 -1,0 -1,1 -1,1 0,1 -1,0 1,1 1,0 0,1 1,0 1,0 1,0 1,0 1,0 1,0 -1,0 0,2 -2,0 0,1 -1,0 -1,0 0,1 0,1 -4,4 0,1 1,1 1,0 0,1 0,1 1,1 -1,1 0,1 0,4 -1,0 0,1 0,1 1,0 0,1 -1,1 1,0 0,1 0,1 -1,0 0,1 -1,0 -1,1 -1,1 -1,0 1,1 3,1 2,0 2,0 0,1 0,1 -1,0 0,1 -1,0 0,1 0,1 0,2 0,1 0,2 0,1 -1,0 -3,0 -1,0 -1,0 0,-1 -2,1 -1,0 -1,1 -1,1 -1,1 0,1 0,1 1,0 0,1 1,1 0,1 -1,0 0,-1 -1,1 0,1 0,1 0,1 0,1 -1,-1 0,1 0,1 1,0 0,1 0,1 0,1 1,0 1,0 0,1 1,1 0,2 0,1 0,1 -1,0 0,1 0,1 -1,0 0,1 -1,0 0,-1 -1,0 -1,0 -1,0 -1,0 -2,-2 -1,1 0,1 0,1 -1,0 1,0 1,1 1,0 0,1 0,1 -1,2 0,1 -1,0 1,1 -1,0 0,1 0,1 0,1 0,1 1,0 0,1 1,0 0,1 1,0 1,0 1,0 0,1 -1,1 -1,0 0,1 0,1 1,0 0,1 1,0 -1,0 0,1 2,0 1,0 0,1 1,0 1,0 0,-1 0,-1 1,-1 1,0 1,0 1,0 0,1 1,0 1,0 1,1 0,1 1,0 0,-1 -1,-1 0,-1 1,0 0,1 1,0 1,0 0,1 -1,0 0,1 1,0 0,1 -1,0 -1,0 -1,0 0,1 -1,0 0,1 1,0 -1,1 0,1 1,0 0,1 1,0 0,1 0,1 0,1 -1,0 0,-1 -1,0 0,-1 0,-1 -1,0 0,-1 -1,0 -2,1 -1,0 -1,0 0,-1 -1,0 -1,-1 -1,0 0,-1 0,-1 0,-1 -1,0 -1,0 -1,1 2,2 0,1 0,1 1,0 0,1 1,1 0,1 -1,0 0,1 -1,0 0,1 1,0 0,1 1,0 1,0 1,0 1,0 0,-1 0,-1 -1,0 0,-1 1,0 0,-1 1,0 0,1 1,0 1,0 1,0 0,1 1,0 1,0 1,0 0,1 1,0 0,1 0,1 0,1 1,0 0,-1 0,1 1,0 0,-1 1,0 1,0 0,-1 1,0 0,-1 1,1 0,-1 1,0 1,-1 1,0 0,-1 0,-1 0,-1 1,0 1,1 1,0 0,-1 1,0 0,1 -1,1 0,1 1,0 0,-1 1,0 1,0 1,0 1,1 0,1 0,1 0,1 0,1 -1,0 0,1 1,0 1,0 1,1 1,0 1,0 0,1 1,0 0,-1 1,0 0,1 1,-1 0,1 0,1 0,1 0,1 0,1 0,1 0,1 1,0 0,1 0,-1 1,0 0,1 1,0 1,0 0,1 1,-1 0,1 1,0 -1,0 0,1 0,1 0,1 -1,0 0,1 0,1 -1,0 0,1 0,1 -1,0 0,1 -1,0 0,1 1,0 1,1 -1,0 -1,-1 -1,0 0,1 -1,0 0,1 -1,0 -1,0 0,1 0,1 -2,0 -1,-1 -1,-1 -1,0 -1,0 0,1 -1,0 -1,-1 0,-1 -1,0 -1,0 -1,1 -1,1 -1,1 0,1 1,0 -1,0 -1,1 -1,0 -1,0 -1,2 0,1 -1,0 1,1 0,1 1,0 0,1 -1,1 0,1 0,1 -1,0 -1,1 -1,0 0,1 0,1 0,1 5,0 1,0 1,0 1,2 -1,0 0,1 -1,1 -1,1 0,1 -1,0 -3,0 0,1 -1,0 0,1 -1,1 0,1 -1,0 -1,1 -1,0 0,-1 -1,0 -1,0 -1,0 -1,0 -1,0 0,1 -1,0 -2,-1 0,-1 -1,0 0,1 -1,0 -1,0 -1,2 0,1 -1,1 0,1 -1,-1 -1,0 -4,0 -1,0 0,-1 -1,-1 -1,0 -1,1 -1,1 0,-1 0,-1 0,-1 -1,0 0,1 -1,0 0,-1 -1,0 0,-1 -1,0 -1,0 0,-1 -1,0 0,-1 -1,0 0,1 -1,0 0,-1 0,-1 0,-1 -1,0 -1,0 -1,1 -2,-1 -1,0 -1,0 -1,-1 0,-1 -1,-1 -1,0 -1,-1 -1,0 -1,-1 -1,0 0,-1 -3,-2 0,-1 -1,0 -1,0 0,-1 0,-1 -1,0 0,-1 1,-1 0,-1 -1,1 -1,-1 -1,-1 0,-1 1,-1 -2,0 -1,0 -1,-1 0,1 -1,-1 0,-1 -1,0 -1,0 0,-1 -1,0 -1,0 0,-1 -1,0 -1,0 0,-1 -1,0 0,-1 1,0 1,0 1,-1 -1,0 -1,1 -1,-1 -1,-5 0,-1 -1,0 0,-1 0,-1 0,-1 0,-1 -1,-2 0,-1 -1,0 1,0 -1,-1 0,-1 1,1 0,-1 -1,-2 0,-2 0,-1 1,0 1,0 -1,0 0,-1 -1,0 1,0 -1,-1 0,1 0,1 -1,-1 0,-2 0,-2 -1,-1 0,-1 -1,-1 -1,0 0,-1 -1,-1 0,-1 0,-1 0,-1 0,-1 -1,-1 0,-1 1,0 1,0 -2,0 0,-1 -1,0 0,-1 0,-1 0,-1 -1,0 0,-1 0,-1 0,-1 0,1 1,1 0,-1 1,0 -1,-1 -1,0 0,-1 0,1 0,-1 -1,0 0,1 -1,0 0,-1 0,-1 1,0 -1,0 -1,0 0,-1 1,0 -1,-1 0,-1 -1,0 -1,-1 -1,0 -1,-1 0,-1 1,0 1,0 0,-1 1,0 1,0 -1,0 0,-1 0,1 -1,0 -1,1 -1,0 0,-1 1,-1 1,0 1,0 0,-1 1,0 0,-1 0,-1 0,-1 0,-1 1,-2 0,-1 -1,0 0,-1 1,0 0,-1 0,-1 -1,-1 0,-1 0,-1 0,-1 0,-1 0,-2 -1,-1 -1,0 -1,0 -1,0 0,-1 1,0 0,-1 1,-1 1,0 0,1 1,0 1,0 0,-1 1,0 1,-1 0,-1 0,-1 0,-1 1,-1 0,-1 1,0 0,-1 0,-1 -1,0 -1,0 1,0 0,-1 1,0 1,0 0,-1 0,-1 0,-1 0,-1 -1,0 -2,-1 -1,0 0,-1 -1,0 0,-1 1,0 1,0 0,-1 -1,0 0,-1 -1,0 0,-1 -1,0 -1,0 1,-1 0,-1 0,1 1,0 1,-1 0,1 1,0 0,-1 1,0 0,-1 1,-1 1,0 1,0 0,1 1,1 1,0 0,-1 1,0 1,0 0,-1 -1,0 1,-1 0,-1 1,0 1,-1 1,0 1,0 1,0 0,-1 0,-1 -1,-1 1,0 1,0 1,0 0,-1 1,-1 1,0 1,0 0,1 1,0 1,1 1,0 1,0 1,-1 0,-1 2,0 0,-1 1,0 2,0 0,1 1,0 1,-1 1,-1 1,1 1,0 0,-1 0,-1 0,-1 0,-1 -1,0 0,-1 1,-1 0,-1 -1,0 0,-1 0,-1 -1,0 0,-1 0,-1 1,0 0,-1 1,-1 1,0 0,1 0,1 1,0 1,0 0,1 1,0 1,-1 1,0 1,0 0,1 0,1 1,0 1,0 1,0 0,-1 0,1 1,0 0,-1 1,0 1,0 1,0 1,0 1,0 1,0 1,0 0,1 1,-1 1,0 -1,-1 -1,0 0,-1 0,-1 0,-1 0,-1 0,-1 2,-1 0,-1 1,0 1,-1 0,-1 1,0 0,-1 1,0 0,1 1,0 1,0 0,1 1,0 1,-1 0,-1 1,0 0,-1 0,-1 0,-1 1,0 1,1 1,-1 0,-1 1,0 0,-1 0,-1 0,-1 0,-1 0,-1 0,-1 1,0 1,0 1,0 1,0 1,0 0,-1 0,-1 1,0 1,-1 1,0 0,-1 1,0 0,-1 0,-1 1,-1 1,0 1,0 0,1 0,1 0,1 1,0 1,0 0,1"
           id="path54" />
      </g>
      <g class="IN_MH">
        <path
           d="m 560,422 3,-1 1,1 1,0 2,0 0,1 1,0 0,1 1,1 1,0 0,1 1,0 1,1 3,1 1,-1 0,1 3,0 1,0 1,0 1,0 0,-1 1,0 1,1 1,0 3,-1 1,0 1,0 1,0 1,1 2,0 1,0 0,1 1,1 0,1 0,1 0,1 -1,0 1,2 1,0 3,0 1,0 1,0 1,0 1,0 0,-1 1,-1 1,0 0,-1 1,0 2,0 0,-1 1,0 0,-1 -1,-1 0,-1 1,0 1,-1 1,0 0,-1 0,-1 1,0 0,-1 0,-1 0,-1 1,0 1,-1 1,0 3,-2 1,0 2,0 1,-1 0,1 1,0 1,0 0,-1 1,0 1,0 0,-1 4,0 0,1 1,0 0,1 1,0 0,2 0,1 0,1 1,0 -1,0 -2,0 -1,0 0,1 0,1 1,1 0,1 1,0 1,0 1,0 1,0 1,0 1,0 0,1 1,-1 1,-1 1,0 1,1 1,0 3,-1 2,-1 1,0 0,-1 1,0 0,-1 1,0 2,0 1,-1 0,-1 1,0 1,0 0,1 1,1 0,1 1,0 1,0 1,0 0,1 2,0 2,0 1,0 2,0 1,-1 1,0 1,0 0,-1 0,-1 2,0 2,-1 1,0 1,0 1,0 0,-1 1,0 0,-1 1,0 1,0 1,0 1,0 1,0 0,1 1,0 1,1 1,0 0,1 0,1 1,0 1,0 1,-1 1,0 2,0 1,0 0,1 1,1 1,0 1,-1 1,0 1,0 2,0 0,-1 1,0 1,-1 1,0 1,1 1,0 1,0 0,1 1,1 1,1 1,0 0,1 -1,1 1,0 1,0 1,0 3,2 1,0 0,-1 0,2 -1,1 -2,1 -2,1 0,1 -1,2 0,1 0,1 1,1 1,0 1,0 0,1 0,1 0,2 1,2 0,1 -1,0 -1,1 0,1 1,0 1,0 0,-1 0,1 1,0 0,1 0,1 0,1 0,2 0,1 0,1 -1,0 0,1 -1,0 -1,1 -1,0 -1,0 0,1 0,1 0,1 2,0 1,0 0,2 0,1 0,1 0,1 0,1 -1,0 0,-1 -1,0 -1,0 0,1 0,1 1,0 0,1 -1,0 0,1 -1,0 1,0 1,1 0,-1 1,0 -1,0 1,0 0,-1 1,0 0,1 0,1 1,0 0,1 1,0 1,0 0,1 1,1 0,1 2,0 0,1 1,0 1,0 0,1 1,0 0,1 0,1 -1,1 -1,0 0,1 0,1 -1,0 0,1 -1,0 0,1 -1,0 0,-1 0,-1 -1,0 -1,0 -1,0 0,-1 0,-1 -1,0 0,1 -1,1 -1,0 0,1 -1,0 0,1 -1,0 0,3 -1,0 0,1 -2,2 0,1 0,1 0,1 2,1 0,1 -2,1 0,1 0,1 -1,0 -2,1 -2,-1 -1,-1 -1,-1 -1,0 -1,-1 0,-1 1,0 0,-2 0,-1 -1,-1 0,-1 -1,0 -1,0 0,-1 1,-1 1,-1 0,-1 0,-1 0,-1 1,0 0,-1 0,-1 0,-1 0,-1 -1,-1 -1,0 0,-1 -1,0 0,-1 -1,0 0,-1 -1,0 -1,0 -1,0 -2,1 0,1 -1,0 -1,0 -1,0 -2,0 -1,0 0,-1 -1,0 0,-1 -2,0 -1,0 0,-1 -1,0 -1,0 -1,0 -2,0 0,1 -1,1 -1,0 0,-1 -1,0 0,-1 -1,0 -1,0 0,-2 0,-1 -1,0 -1,-1 -1,0 -1,0 -1,0 -1,-1 -1,0 -1,0 -1,0 0,1 -1,0 -2,-1 0,-1 -1,0 -1,-1 0,1 0,1 1,2 1,0 0,1 0,1 -1,0 -1,1 0,1 0,1 0,1 0,1 -1,0 -1,1 -1,0 0,1 -1,1 0,1 0,1 0,1 -1,0 -1,0 -1,0 0,-1 -1,0 -1,-1 -1,0 -1,0 -1,1 1,0 -1,1 0,1 -1,1 0,1 0,1 -1,0 0,1 -1,0 0,1 1,0 0,1 1,0 0,1 1,0 0,1 1,1 0,1 -1,0 0,1 -1,0 -1,2 -1,0 -1,1 0,1 0,1 0,1 -1,0 -1,0 -1,0 0,1 -1,0 0,1 0,1 0,1 -1,0 0,1 1,0 0,1 0,1 -1,-1 -1,1 -1,0 0,-1 -1,0 -1,0 0,-1 0,-1 0,-1 -1,0 -1,0 -1,1 0,1 0,1 -1,0 0,1 -1,0 -1,1 -1,0 0,1 0,1 -1,0 -1,0 -1,0 -1,0 -1,0 0,1 0,1 0,1 0,1 0,1 0,1 -1,0 0,1 -1,1 -1,-1 -1,0 0,1 0,1 0,1 -1,0 0,1 -1,1 -1,0 0,-1 -1,0 -1,0 0,-1 -1,0 0,1 -1,0 0,1 -1,1 -1,0 0,1 -2,1 0,1 0,1 0,1 0,1 0,1 1,0 1,1 -1,0 -1,1 0,-1 -1,0 -1,0 -1,0 -1,0 -1,0 -1,0 -1,0 0,1 -1,0 0,-1 0,1 -1,0 -1,0 -1,0 0,-1 0,-1 -1,0 -1,0 -1,1 -1,0 0,-1 -1,0 -1,0 0,-1 0,-1 -1,0 -1,1 0,1 -1,0 0,1 0,1 1,0 0,1 0,1 1,0 0,1 -1,1 0,1 1,0 0,1 0,1 0,1 0,1 -1,0 -1,-1 -1,1 -1,1 -1,0 0,-1 -2,0 -1,0 0,1 -2,0 0,1 -1,1 -1,0 -1,0 -1,-1 -1,0 0,-1 -1,0 -1,0 -1,1 0,1 -1,0 -1,0 -1,0 1,1 0,1 0,1 -1,0 -1,0 -1,0 -1,1 -1,0 0,1 -1,1 1,0 0,1 -1,0 -1,0 0,1 -1,0 -1,-1 0,-1 -1,0 -1,0 -1,1 0,1 -1,0 0,1 -1,0 0,-1 -1,1 -1,0 0,-1 0,1 -1,1 1,0 1,0 0,1 1,0 0,1 1,0 0,1 -1,0 -1,0 0,1 1,0 0,1 1,0 2,1 1,0 0,1 0,1 0,1 0,1 -1,0 -1,0 0,1 -1,0 1,0 1,0 0,1 0,1 -1,0 0,1 -1,1 0,1 0,1 0,1 -1,1 -1,0 0,1 -1,0 -1,0 0,-1 -1,0 -1,1 0,1 -1,0 0,1 -1,0 -1,1 -1,0 -1,-1 -1,-2 -1,-1 -1,0 0,-1 0,1 -1,0 0,1 -2,0 -1,0 -1,0 0,-1 0,-1 0,-1 -1,-1 0,-1 -2,-1 -1,-1 0,-1 1,0 -1,0 0,-1 -1,0 0,-1 0,-1 1,0 0,-1 -1,0 0,1 0,1 0,-2 0,-1 -1,0 0,-1 -1,-2 0,-1 0,-1 -1,-1 0,-1 0,-1 -1,0 0,-1 1,0 0,1 1,0 0,-1 -1,0 0,-1 1,0 0,-1 -1,0 0,1 0,-1 0,-1 0,-1 -1,0 0,-1 0,-1 0,-1 -1,-1 1,0 0,-1 -1,-1 1,0 0,-1 -1,0 0,-1 0,-1 0,1 1,-1 -1,-1 0,-1 0,-1 0,-1 -1,-1 0,-1 -1,0 1,0 1,0 -1,-2 -1,-1 0,-1 0,-1 -1,-1 0,-1 1,0 1,-1 -1,0 -1,0 0,-1 0,-1 -1,0 0,-1 1,0 0,-1 -1,0 0,-1 0,-1 -1,-1 -1,-2 0,-1 0,-1 1,-1 -1,0 0,1 -1,-1 0,-1 0,-3 -1,0 0,-1 0,-1 0,1 1,0 1,0 1,1 0,1 0,-1 0,-1 0,-1 -1,0 -1,0 0,-1 -1,0 0,-1 -1,0 0,-1 0,-1 0,-1 0,-1 1,0 1,1 1,1 0,-1 -1,0 0,-1 0,-1 -1,0 -1,0 -1,-2 0,-1 0,-1 0,-1 0,-1 1,0 1,-1 1,1 0,1 0,1 0,-1 0,-1 1,0 0,-1 -1,0 0,-1 -1,0 -1,0 0,-1 1,0 0,-1 1,0 0,-1 -1,0 1,0 2,0 0,-1 -1,0 -1,1 0,-1 0,-1 0,-1 0,-2 -1,1 0,1 0,1 0,1 -1,1 -1,-1 0,1 -1,1 0,1 -1,0 0,-1 -1,0 1,0 0,-1 0,-1 0,-1 1,1 0,-1 -1,0 1,-1 0,-1 -1,0 1,0 0,-1 -1,0 0,1 0,-1 0,-1 1,-1 -1,0 0,1 0,-1 0,-1 0,-1 1,0 1,0 0,1 1,0 1,0 1,0 1,2 1,0 -1,0 0,-1 0,-1 -1,0 -2,0 -1,-1 -1,-1 0,1 -1,0 -1,-1 0,-1 0,-1 0,-1 3,-1 0,-1 -1,1 -1,0 0,-1 -1,0 0,-1 0,1 0,1 -1,0 0,-2 0,-1 -1,-2 1,0 0,-1 1,0 0,-1 -1,0 -1,1 0,-1 0,-1 -1,0 0,-1 1,0 0,-1 0,-1 0,-1 1,0 0,-1 0,-1 1,-1 1,0 1,0 1,0 1,0 1,-1 1,1 0,1 1,0 1,0 1,0 1,0 0,1 1,-1 0,-1 1,0 0,-1 1,0 0,-1 1,-1 1,1 1,0 0,-1 1,-1 0,-1 0,-1 -1,0 0,-1 1,-1 1,-2 0,-1 0,-1 0,-1 -1,0 0,-1 -1,0 0,-1 1,0 1,-1 1,0 0,1 1,0 0,1 1,0 1,0 0,1 1,1 2,0 1,-1 1,0 0,-1 1,0 0,-1 0,-1 2,-1 0,-1 0,-1 0,-2 -1,-1 0,-1 -1,-1 -1,-1 -1,0 -1,-1 0,-1 -1,0 -1,0 -1,0 -1,-1 0,-1 2,1 1,0 1,0 1,-1 1,0 0,-1 0,-1 1,0 0,1 1,-1 1,0 1,-1 0,-1 0,-1 1,0 1,-1 1,-1 1,1 4,-1 1,-1 0,-1 0,-1 0,1 -1,0 -1,0 -1,0 -1,0 -1,0 -2,0 -1,0 -1,0 0,1 -2,0 -1,0 -1,-1 -1,-1 0,-1 1,0 1,0 0,-1 0,-1 -1,0 0,-1 0,-1 0,-1 1,0 0,-1 1,0 1,0 1,0 1,-1 2,-1 2,0 1,0 1,0 1,0 1,0 0,-1 1,0 1,0 1,-1 1,0 1,2 0,1 0,2 0,1 1,0 0,1 0,1 1,0 1,1 2,1 1,0 0,1 1,0"
           id="path57" />
      </g>
      <g class="IN_AN">
        <path
           d="m 1058,797 0,1 0,1 1,1 0,1 0,1 1,0 0,1 -1,1 0,1 0,1 0,1 -1,0 0,1 -1,1 0,-1 0,-1 -1,0 0,-1 0,-1 -1,0 0,-1 -1,-1 0,-1 -1,0 0,-1 -1,1 0,-3 1,-2 1,0 1,0 0,-1 1,1 0,-1 1,0 1,1"
           id="path60" />
        <path
           d="m 1052,795 0,1 0,-1 -1,0 1,0 -1,0 0,-1 0,-1 1,-1 1,0 0,-1 1,0 0,1 0,1 1,0 -1,0 0,1 -1,0 -1,1"
           id="path62" />
        <path
           d="m 1047,777 0,1 0,1 -1,0 -1,0 -1,0 0,-1 -1,0 0,-1 1,-1 1,0 1,0 0,1 1,0"
           id="path64" />
        <path
           d="m 1050,776 0,1 0,1 -1,-1 0,-1 1,0"
           id="path66" />
        <path
           d="m 1049,774 0,1 0,1 -1,0 0,-1 0,-1 1,0 0,1 0,-1 -1,0 -1,0 0,-2 1,-1 0,-1 1,0 0,1 0,1 0,1 0,1"
           id="path68" />
        <path
           d="m 1042,770 -1,0 0,-1 1,0 0,1"
           id="path70" />
        <path
           d="m 1040,771 -1,0 -1,-1 -1,-1 0,-1 0,-1 1,0 0,1 0,1 1,1 1,0 0,1"
           id="path72" />
        <path
           d="m 1037,764 0,1 0,-1"
           id="path74" />
        <path
           d="m 1051,765 0,-1 0,-1 0,-1 0,-1 0,1 1,1 0,1 -1,1"
           id="path76" />
        <path
           d="m 1031,746 -1,1 -2,0 0,-1 0,-1 0,-1 1,0 0,-1 1,0 0,1 1,0 0,1 0,1"
           id="path78" />
        <path
           d="m 1025,703 0,1 0,1 0,1 -1,1 -1,1 0,1 1,0 0,1 -1,0 0,1 -1,0 -1,-1 -1,0 -1,0 1,-1 0,-1 0,-1 -1,-1 0,-1 0,-1 1,-1 1,-1 1,-1 1,0 1,0 0,1 0,1 1,0"
           id="path80" />
        <path
           d="m 1026,689 -1,-1 0,-1 1,0 0,-1 0,-1 1,0 0,1 1,0 -1,0 0,1 0,1 1,0 -1,0 -1,1"
           id="path82" />
        <path
           d="m 1016,684 -1,0 0,-1 0,-1 1,0 0,1 1,0 0,1 -1,0"
           id="path84" />
        <path
           d="m 1024,683 -1,1 0,-1 1,-1 0,1"
           id="path86" />
        <path
           d="m 1037,675 -1,-1 0,-1 -1,0 0,-1 -1,0 1,-1 1,0 0,2 1,0 0,2"
           id="path88" />
        <path
           d="m 1037,670 0,1 0,-1 -1,0 0,-1 0,-1 0,1 1,1"
           id="path90" />
        <path
           d="m 1038,669 0,1 0,-1 -1,0 0,-1 0,-1 1,0 0,1 0,1"
           id="path92" />
        <path
           d="m 1027,651 0,-2 0,-2 1,-1 0,1 1,0 -1,0 0,2 0,1 -1,0 1,1 -1,0"
           id="path94" />
        <path
           d="m 1036,646 -1,0 0,1 0,1 0,-1 0,1 0,-1 -1,-1 1,0 0,1 0,-1 1,0"
           id="path96" />
        <path
           d="m 1028,644 0,-1 0,1"
           id="path98" />
        <path
           d="m 1069,635 -1,0 1,-1 0,1"
           id="path100" />
        <path
           d="m 1036,631 1,0 0,1 0,1 0,1 0,1 1,0 -1,0 0,1 0,1 -1,0 -1,0 0,1 1,0 1,0 0,1 1,0 -1,1 0,1 0,1 0,1 -1,1 0,1 -1,0 -1,0 1,-1 -1,0 0,1 0,1 0,1 0,-1 -1,0 0,1 -1,1 1,0 1,0 0,1 0,1 1,0 0,1 -1,0 1,1 0,1 0,1 0,1 0,1 0,1 0,1 0,1 -1,0 1,1 -1,0 0,1 -1,0 0,-1 0,1 -1,0 -1,0 1,0 0,1 1,0 0,1 -1,1 1,0 0,1 -1,0 0,1 1,0 0,1 -1,0 -1,1 0,1 -1,0 0,1 -1,0 1,1 -1,0 0,1 0,1 0,2 0,-1 0,-1 1,0 0,1 0,1 -1,4 0,1 -1,0 -1,1 0,1 1,0 0,-1 0,-1 1,0 0,1 0,1 0,1 0,1 -1,1 -1,0 0,-1 -1,-1 0,-1 0,-1 -1,0 0,-1 0,-1 -1,0 0,-2 0,-1 -1,0 0,-1 1,-1 1,0 0,1 1,0 0,-1 0,-1 0,-1 0,-1 0,-3 1,-1 0,-1 1,0 0,1 1,0 1,0 0,-1 0,-1 -1,0 1,0 0,-1 -1,0 -1,0 0,-1 0,-1 0,-6 1,-1 1,0 0,-1 -1,0 0,-2 0,-1 0,-1 1,0 0,-1 1,-1 0,-1 0,-1 -1,-1 1,-2 0,-1 1,0 -1,-1 0,-1 1,0 0,-1 0,-1 -1,-1 1,-1 1,-1 0,-1 0,-1 1,0 0,-1 1,-1 0,1 1,0 0,-1"
           id="path102" />
        <path
           d="m 1037,629 -1,0 -1,0 0,-1 1,0 1,1"
           id="path104" />
      </g>
      <g class="IN_AS">
        <path
           d="m 1111,271 1,-1 0,-1 1,0 0,1 1,0 0,1 0,1 -1,0 0,1 -1,0 -1,1 -1,0 -1,0 -1,0 -4,1 -1,0 0,-1 -1,0 -1,0 -1,1 0,1 0,1 -1,0 -1,1 -1,0 -2,1 -1,1 -1,0 -1,0 0,1 -1,0 -3,2 -1,0 -1,0 0,-1 -1,0 0,1 -1,0 0,1 -1,1 -1,1 -1,1 -2,1 -2,1 -1,0 -1,0 0,1 -1,0 -1,0 0,1 -1,0 0,1 0,1 0,1 -1,0 -1,0 0,1 -1,-1 0,-1 -1,1 -1,1 -1,1 0,1 0,1 -1,1 -1,0 -2,3 0,1 0,1 0,1 -1,0 0,1 0,1 0,1 0,1 -1,1 -1,1 -1,0 -1,0 -1,1 0,-1 0,-1 1,0 0,-1 -1,0 0,-1 -1,0 -1,1 -1,0 0,1 1,0 0,1 -3,2 -2,2 -1,1 -2,1 -1,1 -1,1 1,1 0,1 1,0 0,1 1,0 0,1 0,1 0,1 -1,1 0,1 -1,2 -1,1 0,1 0,1 -1,0 -1,0 0,1 1,1 -1,0 0,1 -1,1 0,1 0,1 -1,0 -1,0 -1,1 0,1 0,1 0,1 0,1 0,1 -1,1 0,1 0,2 -1,0 0,1 -1,0 -1,0 -2,1 -1,0 0,-1 -1,-2 -1,0 -1,2 0,1 -1,0 -1,2 0,1 -1,0 0,1 -1,0 -1,1 -1,1 -1,0 0,-1 -1,0 0,-1 1,-1 -1,0 -1,0 -2,0 -2,0 0,-1 1,-1 0,-1 0,-1 0,-1 -1,0 0,-1 0,-1 -1,-1 -1,0 1,0 0,-1 0,-1 0,-1 1,-3 1,0 0,-1 -1,-1 0,-1 1,0 1,0 2,1 0,1 2,-1 1,0 0,-1 0,-1 -1,0 0,-1 -1,0 0,-1 -1,0 1,0 1,-2 1,0 1,-1 1,0 0,-1 1,0 1,0 1,-1 3,-1 1,0 -1,0 0,-1 0,-1 0,-1 -1,0 0,-1 -1,-1 -1,0 -1,0 0,-1 -1,0 0,-1 1,0 0,-1 1,-1 0,-1 -1,0 0,1 -1,0 -2,-2 -1,-1 -1,-1 -1,0 0,-1 -1,0 0,1 -1,0 -2,0 -1,1 -1,0 0,-1 0,-1 0,-1 0,-1 1,-1 0,-1 -1,0 0,-1 0,-1 2,-1 0,-1 -2,0 -1,0 -1,0 -1,1 -1,0 -2,0 -1,0 -1,0 -1,-1 -1,0 -1,1 -1,1 0,1 -1,1 -1,0 0,-1 0,-1 0,-1 -1,0 -1,1 0,1 -1,0 -1,1 0,1 1,0 -1,1 -2,0 -1,0 -1,1 -2,2 -1,0 0,-1 -1,0 0,-1 1,-1 -1,0 -2,0 -1,0 -1,0 0,-1 0,-1 -1,0 -1,0 -1,0 -1,-1 -1,1 -1,0 -1,0 0,-1 -2,1 -1,0 0,-1 -1,0 0,1 -1,0 -1,1 0,-1 1,-1 -1,0 0,-1 -1,0 -1,0 -1,0 -1,0 -1,0 0,1 -1,0 -2,0 -2,0 -1,0 0,1 -1,1 -1,0 0,1 -1,1 0,1 -1,0 0,1 0,1 0,1 0,1 1,0 0,1 -1,1 -1,0 0,1 0,1 -1,0 -1,1 -1,0 1,-1 0,-2 0,-2 0,-1 -1,-2 0,-2 0,-1 1,-1 0,-1 -1,0 0,-1 1,0 -1,-1 0,1 0,-1 -1,0 0,-1 0,-1 -1,0 0,-1 0,-1 -1,0 -1,0 0,-1 1,0 1,0 0,-1 1,0 0,-1 0,-1 1,0 1,0 0,-1 -1,0 1,0 0,-1 0,-2 1,0 0,-1 0,-1 0,-2 0,-1 -1,-1 1,-1 0,1 1,0 2,-1 3,0 1,0 0,-1 1,-1 1,-1 1,0 1,0 0,-1 1,0 1,0 3,2 3,1 3,0 6,0 2,0 1,-1 1,0 1,0 1,0 1,0 1,1 1,0 1,0 0,-1 1,0 0,-1 1,0 0,-1 1,1 1,0 1,1 1,0 1,0 1,0 2,0 2,-1 1,0 1,1 0,-1 1,0 0,-1 1,1 1,0 1,0 1,-1 0,-1 1,0 3,0 1,0 1,0 1,0 1,-1 3,0 2,-1 1,0 1,0 0,-1 1,0 1,-1 1,1 2,0 2,1 1,0 0,1 1,0 1,0 9,-1 1,1 1,0 0,1 1,-1 1,0 1,0 1,0 1,0 2,-1 1,-1 1,-1 1,0 0,-1 0,-1 0,-1 3,-3 1,0 0,-1 1,0 1,-1 1,-1 4,-3 0,-1 -1,0 0,-1 1,-1 1,1 1,0 1,1 2,-1 1,1 1,-1 1,0 1,-1 2,0 1,-1 2,0 1,0 2,-1 1,-1 8,-2 1,-1 1,0 1,0 1,0 2,0 2,0 0,-1 1,0 2,-1 1,-1 7,0 0,1 -1,0 0,1 -1,2 -2,2 -1,1 0,1 0,2 1,0 0,1 1,0 1,1 0,1 -1,1 1,0 0,1 0,1"
           id="path107" />
      </g>
      <g class="IN_MN">
        <path
           d="m 1078,322 -1,1 -1,4 0,1 1,1 1,0 1,1 1,0 0,1 0,2 -1,0 0,1 0,2 -1,1 -1,1 0,1 0,1 -1,1 -1,0 -1,2 0,1 -1,0 -1,1 0,1 -1,1 0,1 0,1 -1,0 0,1 -1,0 0,1 0,1 -1,3 -1,1 0,1 0,1 0,1 -1,0 -1,2 0,1 0,1 -1,0 -1,0 0,-1 -2,-1 -1,0 -1,0 -1,0 -2,0 -1,-2 -1,0 -1,0 -2,0 0,1 -1,0 -1,0 -1,0 -1,0 0,-1 -1,0 0,-1 -1,-1 -1,0 -1,1 -1,1 0,-1 -1,0 -1,0 -1,0 -1,0 -1,-1 -2,0 0,-1 0,-1 0,-1 1,0 0,-1 0,-1 0,-1 1,0 0,-1 -1,0 0,-1 0,-1 1,0 0,-2 0,-1 1,-1 0,-1 0,-1 0,-1 0,-1 0,-1 1,-1 1,0 1,0 0,-1 0,-1 1,-1 0,-1 1,0 -1,-1 0,-1 1,0 1,0 0,-1 0,-1 1,-1 1,-2 0,-1 1,-1 0,1 1,0 1,0 0,1 1,0 1,1 1,-2 1,-1 1,-1 2,-2 1,-1 -1,0 0,-1 -1,0 0,-1 1,0 4,0 1,0 1,0 1,0 0,1 1,0 1,0 1,0 1,0 1,0 2,0 1,-1 1,0 0,-1 1,0 1,-1 2,-2 0,1 0,1 0,1 -1,2 1,0 1,1 1,0 0,1"
           id="path110" />
      </g>
      <g class="IN_NL">
        <path
           d="m 1094,290 -1,0 -1,0 0,1 -1,0 0,1 0,1 -1,0 -1,1 0,1 0,1 0,1 0,1 0,1 0,1 0,1 0,1 1,0 0,1 0,1 0,1 1,0 0,1 -1,1 -1,1 0,1 -1,0 -1,1 1,3 0,1 -1,0 0,1 -3,3 0,1 -1,0 -1,1 -1,0 0,1 -1,0 -1,0 -1,1 0,-1 -1,0 -1,-1 -1,0 1,-2 0,-1 0,-1 0,-1 -2,2 -1,1 -1,0 0,1 -1,0 -1,1 -2,0 -1,0 -1,0 -1,0 -1,0 -1,0 0,-1 -1,0 -1,0 -1,0 -4,0 -1,0 0,1 1,0 0,1 1,0 -1,1 -2,2 -1,1 -1,1 -1,2 -1,-1 -1,0 0,-1 -1,0 -1,0 0,-1 0,-1 0,-1 0,-1 -1,0 0,-1 -1,0 0,-1 -1,-1 1,-1 1,-1 2,-1 1,-1 2,-2 3,-2 0,-1 -1,0 0,-1 1,0 1,-1 1,0 0,1 1,0 0,1 -1,0 0,1 0,1 1,-1 1,0 1,0 1,-1 1,-1 0,-1 0,-1 0,-1 0,-1 1,0 0,-1 0,-1 0,-1 2,-3 1,0 1,-1 0,-1 0,-1 1,-1 1,-1 1,-1 0,1 1,1 0,-1 1,0 1,0 0,-1 0,-1 0,-1 1,0 0,-1 1,0 1,0 0,-1 1,0 1,0 2,-1 2,-1 1,-1 1,-1 1,-1 0,-1 1,0 0,-1 1,0 0,1 1,0 1,0 3,-2 1,0 0,-1 0,1 1,0 0,1 1,0 0,1 0,1 -1,0 0,1 0,1 1,0 0,1 -1,0 0,1 1,1 0,1"
           id="path113" />
      </g>
      <g class="IN_ML">
        <path
           d="m 1007,306 1,0 2,0 1,0 1,-1 1,0 1,0 2,0 0,1 -2,1 0,1 0,1 1,0 0,1 -1,1 0,1 0,1 0,1 0,1 1,0 1,-1 2,0 1,0 0,-1 1,0 0,1 1,0 1,1 1,1 2,2 1,0 0,-1 1,0 0,1 -1,1 0,1 -1,0 0,1 1,0 0,1 1,0 1,0 1,1 0,1 1,0 0,1 0,1 0,1 1,0 -1,0 -3,1 -1,1 -1,0 -1,0 0,1 -1,0 -1,1 -1,0 -1,2 -1,0 0,-1 -1,0 0,-1 -1,0 -1,0 -1,0 -1,-1 -1,0 -1,0 0,-1 -1,0 -1,0 -1,-1 0,1 -1,0 -1,0 -3,0 -1,0 -1,0 -1,0 0,1 -1,0 -1,0 -1,0 0,-1 -1,0 0,1 -1,0 -1,0 -4,-1 -2,-1 -1,0 -1,0 -4,1 -1,0 -3,1 -1,-1 -1,0 -1,0 -1,0 -1,0 -2,0 -2,0 -2,0 -1,0 -2,0 -4,-1 -6,-2 -1,0 -1,0 -1,-1 0,-1 0,-1 0,-1 1,0 1,-1 1,0 0,-1 0,-1 1,0 1,-1 0,-1 -1,0 0,-1 0,-1 0,-1 0,-1 1,0 0,-1 1,-1 0,-1 1,0 1,-1 0,-1 1,0 2,0 2,0 1,0 0,-1 1,0 1,0 1,0 1,0 1,0 0,1 1,0 -1,1 0,1 1,-1 1,0 0,-1 1,0 0,1 1,0 2,-1 0,1 1,0 1,0 1,-1 1,1 1,0 1,0 1,0 0,1 0,1 1,0 1,0 2,0 1,0 -1,1 0,1 1,0 0,1 1,0 2,-2 1,-1 1,0 2,0 1,-1 -1,0 0,-1 1,-1 1,0 0,-1 1,-1 1,0 0,1 0,1 0,1 1,0 1,-1 0,-1 1,-1 1,-1 1,0 1,1 1,0"
           id="path116" />
      </g>
      <g class="IN_PB">
        <path
           d="m 583,146 1,0 -1,1 -1,2 2,0 0,1 1,-1 0,1 1,0 1,1 2,0 0,1 1,0 1,1 1,2 -1,0 0,1 0,1 3,5 2,4 0,1 0,1 1,0 0,1 1,0 1,0 1,0 0,-1 1,0 0,-1 0,-1 1,0 1,2 1,1 1,0 0,1 1,0 0,-1 0,1 1,0 1,0 0,1 1,0 0,1 -1,0 0,1 0,1 1,0 0,1 -1,0 0,1 1,0 0,1 2,1 2,1 0,1 0,1 1,0 0,1 -1,0 -1,0 -1,1 0,1 1,0 0,1 1,0 1,0 1,0 0,1 1,0 0,1 0,1 0,1 0,1 0,1 0,1 0,1 0,1 -1,0 0,-1 0,-1 -1,0 -1,0 -1,0 -1,0 0,1 1,0 0,1 -1,0 -1,1 -1,0 0,1 -1,0 -1,0 0,1 -1,0 1,0 1,0 1,0 0,1 0,1 -1,1 -2,1 -1,0 0,-1 -1,0 0,-1 0,-1 -1,0 0,1 0,1 -1,0 0,-1 -1,0 0,1 -1,0 -1,0 0,-1 -1,0 0,1 1,0 0,1 -1,0 0,1 -1,2 0,1 1,1 0,1 -1,0 -1,1 -1,0 -1,1 -1,0 -1,0 0,1 -1,0 -1,0 -1,-1 0,-1 -1,0 0,-1 -1,0 -1,1 -1,0 0,1 -1,0 -1,0 -1,0 -1,0 -1,0 -1,-1 -1,0 0,1 -1,0 0,1 -1,0 0,1 0,1 -1,0 -1,1 0,1 -1,0 -1,0 0,-1 0,-1 -1,0 1,0 -1,-1 1,0 0,-1 1,0 0,-1 -1,0 0,-1 0,-1 -1,0 0,1 -1,0 -1,0 0,-1 0,-1 0,-1 0,1 -1,0 -1,0 -1,0 -1,-1 -1,-1 -1,0 -1,0 0,-1 -1,0 -1,1 -1,0 -1,0 0,1 -1,0 -1,0 -2,-1 -3,0 -3,0 -10,0 0,-1 -1,0 1,0 0,-1 2,-3 0,-1 -1,0 0,-1 0,-1 -1,-1 0,-1 -2,0 1,-1 1,0 0,-1 1,0 1,-2 1,0 1,-1 0,-1 0,-1 1,0 0,-1 1,0 1,0 0,-1 0,-1 1,0 1,-1 0,-1 1,0 0,-1 1,0 -1,-1 1,0 1,0 1,0 0,-1 1,0 0,-1 1,0 1,0 1,-1 0,-1 1,0 0,-1 2,0 -1,0 0,-1 -1,0 -1,0 -1,0 0,-1 0,-1 0,-1 0,-1 0,-1 1,-2 1,-1 0,-1 1,0 -1,-2 -1,-2 -1,-2 -1,-1 1,0 0,-1 0,-1 1,0 0,-1 2,-1 1,0 0,-1 1,-1 1,0 1,0 1,-1 0,-1 1,1 1,-1 1,0 1,0 0,-1 1,0 0,-1 1,0 1,1 1,0 0,-1 1,1 0,-1 1,0 0,-1 1,0 1,0 1,-1 0,-1 1,0 0,-1 0,-1 -1,0 -1,-1 1,0 2,0 1,0 1,1 1,0 1,-1 0,-1 1,0 2,-1 1,0 1,0 0,-1 1,-1 1,0 1,-1 0,1 1,2 -1,1 -2,1 -1,1 -1,0 0,1 -2,0 -1,1 1,1"
           id="path119" />
      </g>
      <g class="IN_RJ">
        <path
           d="m 548,204 3,0 3,0 0,1 0,1 1,0 0,1 -1,0 -1,0 0,1 0,1 -1,0 1,0 0,1 1,0 1,-1 1,0 0,1 0,1 -1,3 1,0 0,1 0,1 0,1 -1,0 -1,0 0,1 1,0 0,1 1,0 0,1 1,0 1,0 0,-1 1,0 1,1 1,-1 1,0 1,0 1,0 1,1 0,1 1,0 0,1 1,-1 1,1 0,1 1,0 1,0 0,-1 1,0 1,0 1,0 1,0 1,-1 0,1 0,1 1,0 0,-1 1,0 0,1 0,1 -1,0 0,1 1,0 0,1 0,1 1,0 0,1 1,1 1,0 0,1 -1,1 1,1 0,1 0,1 1,1 1,3 0,1 1,0 0,1 1,0 0,1 1,1 1,0 0,1 1,0 0,1 1,0 1,0 1,1 1,1 2,2 1,1 0,1 1,1 -1,0 0,-1 -1,0 0,1 -1,0 -1,1 1,1 1,-1 0,1 -1,1 0,1 0,1 -1,0 0,1 1,1 0,1 1,0 2,0 1,0 0,1 1,0 1,0 0,-1 0,-1 -1,0 0,-1 0,-1 0,-1 0,-1 0,-1 1,0 1,0 1,0 1,1 1,-1 -1,0 0,-1 0,-1 -1,0 0,-1 1,0 1,0 0,1 1,0 1,0 1,1 -1,0 1,1 -1,0 0,1 1,0 1,0 1,1 0,1 1,-1 1,0 1,0 0,-1 -1,0 0,-1 1,0 0,-1 1,0 1,-1 1,-1 1,-1 1,0 0,1 1,0 1,1 0,1 0,1 0,1 0,1 0,1 0,1 0,1 0,1 0,1 -1,0 0,2 1,1 -1,0 0,1 1,-1 1,0 0,-1 1,0 2,0 -1,-1 -1,0 1,-1 1,0 1,0 1,0 1,0 1,0 1,0 0,1 0,1 0,1 1,0 0,1 0,1 1,1 -1,0 0,1 1,0 1,1 0,1 1,1 0,1 1,0 1,0 1,1 1,0 0,1 1,1 0,1 1,1 -1,1 -1,0 0,1 -2,0 0,1 1,0 0,1 1,0 1,0 1,0 0,1 1,0 0,-1 0,1 -1,1 -1,0 -4,2 -1,0 -1,0 0,1 0,1 0,1 1,0 0,-1 1,-1 0,1 1,0 0,-1 3,-1 1,0 1,-1 1,0 2,0 1,1 0,-1 1,0 1,1 1,0 1,0 0,1 0,-1 0,-1 1,0 1,0 1,-1 1,0 0,1 1,0 1,0 -1,1 -1,0 0,1 1,0 0,1 -1,0 0,1 -1,-1 -1,0 0,1 0,1 0,1 -1,0 -1,0 -1,0 -1,1 -1,0 0,1 -1,0 -1,0 0,1 0,1 -1,0 -1,0 0,1 -1,0 -1,0 -1,0 0,1 -2,1 -1,0 -1,0 -1,0 0,1 -1,1 -1,0 -1,0 0,1 -1,0 0,1 -1,0 -1,1 -1,0 -1,0 -1,0 0,1 -1,0 -1,1 -1,1 -1,0 -1,1 0,1 -1,0 -1,1 0,1 -1,0 -1,1 -1,0 -1,0 -1,0 0,1 -1,0 -1,1 -1,1 0,1 0,1 -1,0 0,1 1,4 1,1 0,1 0,1 1,0 1,0 0,1 1,0 1,0 0,1 1,0 1,1 1,-1 1,0 0,1 1,0 1,0 2,0 1,-1 1,0 1,0 1,0 1,0 0,-1 1,-1 1,0 1,0 1,0 0,1 0,1 0,1 0,1 0,1 1,0 0,1 0,1 0,1 -1,0 -1,0 -1,0 -1,0 -1,0 -3,1 -1,0 -1,0 -3,1 -1,0 0,1 0,1 0,1 1,0 0,1 -1,0 0,1 -1,0 -1,0 0,1 2,2 2,0 1,0 1,1 1,1 0,2 0,1 -3,1 -1,0 0,-1 -1,0 0,-1 -1,0 0,1 0,1 0,1 0,1 0,2 0,1 1,1 1,1 0,1 -1,0 0,1 -1,0 -1,0 -1,0 -1,-1 -1,-1 0,-1 0,-1 -1,0 -1,1 -1,0 0,1 0,1 -1,0 -1,0 0,-1 0,-1 -1,0 -1,1 -1,-1 -1,0 -1,0 -1,0 -1,0 0,-1 0,-1 -1,0 -1,1 0,1 0,1 0,1 0,1 0,1 -1,1 -2,1 -1,0 0,1 1,0 0,1 -1,0 -2,1 -1,1 -1,0 -1,0 -1,0 0,-1 -1,1 1,1 -1,0 0,1 0,1 -1,0 0,-1 -1,0 -1,0 0,-1 -2,-1 0,-1 -1,0 0,-1 1,-1 0,-1 1,0 0,1 1,0 1,0 1,0 1,0 1,0 0,-1 1,-1 1,0 0,-1 -2,0 0,-1 0,-1 1,-1 0,-1 0,-1 -1,0 0,-1 0,-1 0,-1 0,-1 0,-1 1,0 1,1 1,0 0,-1 0,-2 -1,-1 0,-1 0,-1 -1,-1 0,-1 -1,0 -1,0 -2,1 -1,0 -1,0 -3,1 -1,0 -2,0 0,-1 -1,0 -1,1 -1,0 0,-1 -1,0 0,-1 1,-1 0,-1 -1,0 0,-1 1,0 1,1 1,0 1,0 1,0 1,0 0,-1 -1,0 -1,0 -1,0 -1,0 0,-1 1,0 1,0 0,-1 -1,0 0,-1 1,-1 -1,0 -1,0 -1,0 -1,0 -1,0 0,1 -1,0 0,1 0,1 0,1 -1,0 -1,1 -1,0 -1,0 0,-1 -1,0 -1,-1 -1,0 0,2 0,1 0,1 1,0 1,0 1,0 1,0 0,1 0,1 -1,1 -1,0 -1,0 -1,-1 0,-1 -1,-1 0,1 0,1 0,1 -1,2 -1,1 0,1 3,1 1,0 0,1 -1,0 0,1 -2,1 0,1 0,1 0,1 2,-1 0,1 1,0 0,1 1,0 0,1 0,1 0,1 1,0 0,1 1,0 0,1 -1,0 -1,3 0,1 0,1 0,1 1,1 0,1 0,1 -1,1 -1,2 0,1 -1,0 -1,1 -2,1 -2,0 -2,2 -1,2 0,1 1,0 1,0 1,0 1,0 0,1 1,0 0,1 -1,1 -2,0 -1,1 -2,1 -1,0 -1,-1 -1,1 -1,0 -1,-1 -1,-1 0,-1 -1,0 -1,0 -1,0 -1,-1 0,-1 0,-1 -2,0 -1,-1 -1,-1 -1,1 -1,-1 -1,-2 -1,0 -2,1 -1,-1 -1,0 0,-1 0,-1 -1,-1 1,0 0,-1 -1,0 0,-1 -1,0 -1,0 0,1 -1,0 0,-1 1,0 0,-1 0,-1 -1,0 -1,0 0,-1 -1,-1 -1,0 0,-2 0,-1 1,-1 0,-1 0,-1 0,-1 -1,-1 -1,-1 0,1 0,1 -1,0 -1,1 -1,0 0,-1 0,-1 -1,0 -1,-1 -1,-1 0,-1 -1,0 1,-1 0,-1 1,-1 1,0 1,-1 0,-1 -1,0 -2,0 0,-1 0,-1 0,-1 -1,0 -1,0 -1,0 0,1 0,1 -1,0 0,1 -1,1 -1,0 -1,-1 -1,0 -1,0 -1,0 -1,-1 0,-1 -1,0 -1,0 -1,-1 -1,0 -1,0 0,2 -1,0 0,-1 -1,0 0,-1 -1,0 -1,-1 -1,0 0,-1 -1,0 0,-1 1,0 1,0 0,-1 -1,1 -1,0 -1,0 -1,0 -2,-1 -1,0 0,-1 -1,0 -1,0 -1,1 -1,0 -1,0 0,-1 -1,1 0,1 -1,0 0,-1 -1,0 -3,0 -1,0 -1,-1 -2,0 -1,1 -1,0 -1,0 -1,0 -1,0 -1,0 0,1 -1,0 -2,-1 -1,-1 -1,0 -1,0 -1,-3 -1,-2 -1,-1 0,-2 -1,-3 -1,-1 0,-1 -2,-1 -1,-1 0,-1 0,-1 -1,-1 -1,0 0,-1 0,-3 0,-2 0,-1 0,-1 -1,0 -1,0 -1,0 -1,1 -3,0 -2,-1 -1,0 -1,-1 0,-1 -1,-1 -1,-1 -1,-1 -1,-1 0,-1 0,-1 0,-1 0,-1 2,-3 0,-1 0,-1 0,-1 0,-1 0,-2 1,-2 -1,-1 -1,-1 -1,0 -7,0 -1,0 -2,-2 -1,0 -4,-2 0,-1 -1,-1 1,-3 0,-3 1,-2 1,-2 3,-2 1,-1 3,-3 2,-2 2,-2 1,0 2,-6 2,-2 2,-1 2,-2 1,0 1,0 1,-1 1,0 1,0 0,1 1,0 1,1 0,1 1,0 0,1 0,1 1,2 1,1 1,1 2,0 2,-1 3,-1 3,-1 2,-1 2,0 3,0 2,0 2,0 4,-1 4,-2 1,-3 0,-1 2,-3 3,-2 1,-1 1,-1 1,-1 1,-6 1,-1 2,-2 4,-2 4,-2 3,-1 3,-2 1,0 0,-2 1,-1 2,-2 2,-3 1,-3 2,-2 1,-4 1,-3 1,-3 5,-2 5,-1 1,-1 4,-3 1,0 0,1 -2,3 0,1 -1,0 1,0 0,1 10,0"
           id="path122" />
      </g>
      <g class="IN_UP">
        <path
           d="m 640,212 3,-1 0,-1 1,0 2,1 1,1 2,-1 1,0 0,-1 0,-2 -1,-2 0,-1 0,-1 1,0 1,0 1,2 1,1 1,2 1,0 2,1 1,1 1,1 0,1 1,1 1,1 5,2 2,1 1,0 0,1 -1,0 -1,1 -1,0 -1,1 0,-1 -1,0 0,1 -1,0 0,1 4,1 1,1 0,1 0,1 1,0 2,-1 1,0 2,1 0,1 1,0 0,1 3,2 1,0 1,0 1,0 0,1 1,0 0,1 0,1 2,-1 1,0 1,0 0,1 1,0 2,0 1,0 0,-1 1,0 1,0 0,1 1,0 -1,1 1,0 1,0 0,1 1,0 0,1 1,0 1,0 1,0 0,-1 0,-1 1,0 1,0 1,1 1,1 1,0 0,1 1,0 1,1 0,1 1,0 1,0 1,0 1,1 1,0 -1,-2 1,0 0,-1 1,0 0,1 1,0 0,1 1,0 1,0 0,1 1,0 1,1 1,1 1,0 1,0 1,0 0,1 0,1 1,0 1,0 1,0 0,1 1,0 3,0 0,1 1,0 0,2 1,1 1,1 1,1 -1,0 1,0 0,1 1,0 0,-1 1,0 1,0 0,1 1,0 0,1 2,1 1,1 1,1 1,0 1,0 1,1 2,1 0,1 1,0 1,0 1,-1 1,-1 2,0 0,1 1,0 1,1 1,0 3,2 2,1 1,2 1,0 3,0 3,-1 1,0 0,1 0,1 1,2 0,1 4,0 0,1 2,0 1,1 3,0 1,0 2,1 0,1 1,0 0,1 1,0 0,-1 1,0 0,-1 1,0 0,-1 -1,0 0,-1 1,0 2,0 3,0 2,1 4,2 1,0 0,1 1,0 0,1 1,0 0,1 0,1 0,1 1,0 0,1 1,1 1,1 0,1 1,2 1,0 0,1 1,0 1,0 1,0 0,1 0,1 0,1 1,1 1,0 2,2 -4,1 -1,-1 -1,0 -1,0 -1,0 0,1 0,1 -1,0 0,1 -1,0 -1,1 0,-1 -1,0 0,1 0,1 1,0 1,0 1,0 1,1 1,0 2,1 0,1 -1,0 0,1 1,1 -1,0 -1,0 -1,0 -1,1 -1,0 0,1 1,0 0,1 1,2 1,0 1,0 0,1 1,1 1,1 0,1 1,0 1,0 1,0 1,0 1,1 1,1 1,0 1,0 2,1 0,1 0,1 -1,0 -1,1 -1,0 -1,0 -1,0 0,-1 -1,-1 -1,0 0,1 -1,0 0,1 1,1 -1,0 -1,1 0,-1 -1,0 0,-1 0,-1 -1,0 -1,0 -2,2 -2,1 0,1 -2,1 -1,0 0,1 -1,0 -1,0 0,1 -1,1 -3,1 -3,2 -1,0 0,1 -1,0 -1,1 -1,0 -1,1 0,1 -1,2 0,1 1,0 0,1 0,1 0,1 0,1 0,1 1,0 0,1 1,0 0,1 1,0 1,0 0,1 1,0 0,1 -1,1 1,1 -1,1 1,1 -3,1 -1,0 0,1 1,1 0,1 1,0 0,1 -1,1 0,1 0,1 -1,0 -1,1 0,2 -1,0 0,1 -1,1 0,1 -1,0 0,1 0,1 -1,0 -1,0 -1,1 -1,0 -1,-1 -1,0 -1,1 -1,-1 -1,0 -1,-1 -1,-1 -1,-1 -1,0 0,-1 0,-1 -1,0 0,-1 -1,0 0,-1 1,0 1,0 0,-2 1,-1 0,-2 -1,0 0,-1 0,-1 0,-1 0,-1 1,-1 0,1 1,0 0,-1 0,-1 -1,0 0,-1 -1,0 0,-1 -1,0 -2,0 -1,0 -1,0 -2,-1 -1,1 0,1 0,1 -1,0 -1,0 -1,0 0,-1 0,-1 -1,0 0,-1 0,-1 -1,0 0,1 -1,-1 1,-1 -1,0 0,-1 -1,1 -1,0 -2,-1 -1,0 -1,0 -2,-2 -1,0 0,-1 1,0 -1,-1 -1,-1 -1,0 0,1 -1,0 0,-1 -1,0 -1,0 -1,-1 -1,0 0,-1 -1,-1 0,-1 -3,1 1,1 -1,0 0,1 -1,0 0,-1 -1,0 1,-1 -1,0 -1,0 -1,0 -1,0 0,1 0,1 -1,1 0,1 -1,0 1,1 -1,0 0,1 -1,0 -1,1 0,-1 -1,-1 -1,0 -1,0 -1,0 -1,0 -1,0 -1,0 -1,0 0,-1 0,-1 1,0 0,-1 0,-1 1,-2 -1,0 -1,0 0,1 -2,0 -1,0 0,1 1,0 1,1 -1,0 -1,0 -1,0 -1,-1 0,-1 -1,0 0,1 0,1 -1,0 0,-1 -1,0 0,1 1,1 -1,1 -1,0 0,-1 -1,0 1,1 -1,0 -1,0 -1,0 -1,0 0,-1 0,-1 1,0 0,-1 1,0 0,-1 1,0 1,0 0,-1 -1,0 0,-1 -1,0 0,-1 -1,0 0,-1 0,-1 0,-1 -1,0 0,-1 -1,0 0,1 -1,-1 0,1 -1,0 -1,1 -1,0 -2,1 -1,1 -1,0 -1,1 -1,0 -1,0 0,1 1,0 0,1 -1,1 -1,0 0,-1 -1,0 -2,0 -1,0 -1,0 -1,0 -1,0 0,1 -1,0 0,1 0,-1 -1,0 0,-1 -1,0 0,1 0,1 -1,0 -1,0 0,-1 1,-1 1,-1 1,-1 0,-1 0,-1 0,1 -1,0 -1,0 -1,0 0,1 -1,-1 0,-1 1,-1 -1,1 0,1 0,2 0,1 -1,0 -1,0 -1,-1 0,1 -1,0 0,1 0,-1 0,-1 -1,0 -1,1 -1,0 0,-1 0,-1 1,0 0,-1 -1,0 -1,0 0,1 -1,0 0,1 -1,0 0,1 -1,0 0,-1 0,-1 1,-1 1,0 0,-1 0,-1 1,-1 0,-1 -1,0 -1,0 0,-1 1,0 0,-1 -1,0 0,-1 -1,1 0,1 0,1 -1,0 0,-1 -1,-1 -1,0 0,1 0,1 0,1 0,1 -1,0 -1,-1 -1,-1 -1,0 0,1 0,1 -1,0 0,1 -1,0 0,1 0,1 1,0 1,1 1,2 0,2 0,2 1,1 1,1 0,1 1,0 0,1 0,1 0,1 0,1 -1,0 0,1 1,1 1,0 1,-1 1,1 1,0 0,1 0,1 1,0 0,1 -1,0 1,0 0,1 1,0 0,1 0,1 -1,0 0,1 -1,0 0,1 0,1 -1,0 0,1 -1,0 0,1 -1,0 0,-1 -1,0 0,-1 -1,0 -1,0 -1,-1 -1,-1 -1,-1 -1,0 -1,0 -1,0 0,1 0,1 -1,0 -1,0 -1,0 0,-1 1,-1 0,-1 -1,0 -1,0 0,-1 -1,0 0,-1 0,-1 1,-1 0,-1 -1,0 0,-1 1,0 -1,-1 0,-1 0,-1 -1,-2 -1,0 0,-1 2,-1 2,-1 0,-1 1,-1 -1,0 0,-1 1,-1 0,-1 0,-1 0,-1 -2,-2 0,-1 -1,-1 1,0 1,-2 1,0 0,-2 3,-1 1,0 1,0 1,0 1,-1 2,0 1,0 0,-1 0,-1 0,-1 0,-1 0,-1 1,0 1,-1 0,-1 2,-2 0,-1 1,-1 0,-1 1,0 0,-1 -1,0 0,-1 0,-1 1,0 -1,-1 0,-1 1,0 1,0 0,-1 1,0 0,-1 0,-1 0,-1 0,-1 -1,-1 -1,-2 -1,-1 0,-1 0,-1 -1,0 -1,0 -1,-1 -1,-1 -1,0 -1,-1 -1,1 -1,0 -1,0 0,1 -1,-1 -1,0 -1,0 -1,-1 -1,0 -1,-1 -1,0 -1,0 -1,1 -1,0 0,-1 -1,0 0,-1 1,0 1,-1 -1,0 -1,0 0,-1 -1,0 -1,1 -1,0 -1,0 0,1 0,1 0,-1 -1,0 -1,0 -1,-1 -1,0 0,1 -1,-1 -2,0 -1,0 -1,1 -1,0 -3,1 0,1 -1,0 0,-1 -1,1 0,1 -1,0 0,-1 0,-1 0,-1 1,0 1,0 4,-2 1,0 1,-1 0,-1 0,1 -1,0 0,-1 -1,0 -1,0 -1,0 0,-1 -1,0 0,-1 2,0 0,-1 1,0 1,-1 -1,-1 0,-1 -1,-1 0,-1 -1,0 -1,-1 -1,0 -1,0 0,-1 -1,-1 0,-1 -1,-1 -1,0 0,-1 1,0 -1,-1 0,-1 0,-1 -1,0 0,-1 0,-1 0,-1 1,-1 1,0 1,0 1,-1 1,0 0,-1 1,0 0,-1 0,-1 0,-1 -1,0 0,-1 0,-1 1,1 0,-1 0,-1 1,-1 -1,0 0,-1 1,0 -1,-1 -1,0 0,-1 0,-1 1,-1 -1,0 0,-1 -1,0 0,-1 -1,0 -1,0 1,0 -1,-1 -1,0 0,-2 -1,0 1,0 0,-1 0,-1 0,-1 0,-1 -2,-1 -1,-1 0,-1 0,-1 0,-1 -1,-1 1,-1 -1,-1 0,-2 -1,0 0,-4 0,-1 1,0 -1,0 0,-1 0,-1 1,0 0,-1 -1,0 -1,0 -1,0 1,0 0,-1 1,-1 -1,0 -1,0 1,-1 -1,0 0,-1 1,0 0,-1 0,-1 1,-1 -1,0 1,-1 0,-1 1,0 0,-1 1,-3 0,-1 1,0 0,-1 1,0 0,-1 1,0 0,-1 1,-1 1,0 0,-1 1,-1 2,-1 1,-1 1,-1 0,-2 1,0 1,0 2,2 2,0 3,2 0,1 -2,1 -1,1 -1,2 -1,2 0,1 0,1 0,1 1,1 0,1 0,1 1,2"
           id="path125" />
      </g>
      <g class="IN_UT">
        <path
           d="m 681,175 0,1 1,0 1,0 0,1 1,0 0,1 1,0 1,1 1,-1 1,0 1,0 1,-1 1,1 1,0 1,0 1,1 0,1 1,0 2,1 1,0 0,1 0,1 1,0 1,0 0,-1 1,0 0,1 1,1 1,0 -1,1 -1,0 0,1 1,0 0,1 0,1 -1,0 1,0 1,0 2,1 3,1 1,0 1,1 1,0 1,0 3,1 1,1 0,1 1,0 0,1 2,0 2,1 1,0 1,1 0,1 -2,0 -1,0 -1,0 0,1 -1,1 -1,1 -1,0 0,1 -1,1 -1,1 -1,0 -1,0 -1,1 0,1 0,1 -2,1 -2,1 -1,0 0,1 0,1 1,1 0,1 0,1 -1,0 0,1 -1,0 0,1 -1,0 0,1 -1,0 0,1 -1,0 1,1 0,2 1,0 0,1 0,2 -1,0 -1,0 1,1 0,1 -1,0 -1,0 -1,0 0,1 0,1 0,1 -1,1 -1,0 0,1 0,1 0,1 0,1 1,0 -1,0 0,1 0,1 -1,0 -1,0 -1,0 0,-1 -1,0 0,-1 -1,0 -1,0 1,-1 -1,0 0,-1 -1,0 -1,0 0,1 -1,0 -2,0 -1,0 0,-1 -1,0 -1,0 -2,1 0,-1 0,-1 -1,0 0,-1 -1,0 -1,0 -1,0 -3,-2 0,-1 -1,0 0,-1 -2,-1 -1,0 -2,1 -1,0 0,-1 0,-1 -1,-1 -4,-1 0,-1 1,0 0,-1 1,0 0,1 1,-1 1,0 1,-1 1,0 0,-1 -1,0 -2,-1 -5,-2 -1,-1 -1,-1 0,-1 -1,-1 -1,-1 -2,-1 -1,0 -1,-2 -1,-1 -1,-2 -1,0 -1,0 0,1 0,1 1,2 0,2 0,1 -1,0 -2,1 -1,-1 -2,-1 -1,0 0,1 -3,1 -1,-2 0,-1 0,-1 -1,-1 0,-1 0,-1 0,-1 1,-2 1,-2 1,-1 2,-1 0,-1 -3,-2 -2,0 -2,-2 -1,0 -1,0 -1,-1 1,0 1,0 0,-1 1,0 1,0 2,-1 1,0 0,-1 -1,0 0,-1 -1,-1 1,0 0,-1 -1,0 0,-1 0,-1 -1,-1 0,-1 1,-1 0,-1 1,0 0,-1 0,-1 -1,0 0,-1 1,0 1,0 -1,-1 1,0 1,-2 1,-1 1,0 0,-1 1,0 1,1 1,-1 1,0 1,-1 2,-1 1,0 1,-1 1,0 1,0 1,0 0,1 1,0 1,1 1,0 1,0 1,0 1,0 1,0 1,0 1,0 0,1 1,-1 0,1 1,0 0,1 1,0 0,1 2,0 1,0 1,0 0,-1 -1,-1 -1,-1 -1,-1 0,-1 1,-1 1,0 0,1 0,-1 1,-1 0,-1 1,0 1,0 1,1 1,0 0,1 1,0 0,1 0,1 0,1 1,0 1,0 0,1 0,1 0,1 1,0 1,0 0,1 1,0"
           id="path128" />
      </g>
      <g class="IN_JH">
        <path
           d="m 897,327 1,0 1,0 1,1 -1,0 0,1 0,1 0,1 1,0 1,1 1,1 0,2 0,1 0,1 -1,1 0,1 -1,0 1,0 0,1 1,0 0,1 0,1 0,1 1,0 -1,1 -1,0 -1,0 -1,0 1,0 0,1 0,1 0,1 -1,0 0,1 -1,3 -1,1 -1,0 -1,1 1,1 0,-1 0,1 0,1 -1,0 -1,0 0,1 -1,0 -1,0 0,1 0,1 -1,0 0,1 -1,0 -1,0 -1,0 0,-1 -1,0 -1,0 -1,0 0,1 1,0 0,1 1,0 0,1 -1,0 0,1 0,1 -1,0 -1,0 -1,-1 0,1 0,1 1,0 -1,0 -2,0 -1,-1 -1,0 -1,0 -1,-1 -1,0 -1,0 0,1 -1,0 0,1 0,1 1,0 -1,1 -1,1 -3,0 -2,1 -1,0 -2,1 -1,0 -1,1 -1,0 0,1 0,1 -1,1 -1,1 -1,0 -1,-1 -1,0 -1,0 0,-1 1,-1 -1,-1 -1,0 -1,0 -1,0 0,1 0,1 -1,0 -1,0 -2,0 0,1 -1,0 0,1 1,0 1,0 0,1 0,1 -1,1 0,1 0,1 1,1 0,1 2,0 1,0 1,0 3,4 1,0 1,0 1,0 1,0 4,0 1,0 0,1 -1,0 -1,1 0,1 0,1 0,1 -1,0 0,1 2,1 1,0 1,0 1,2 1,1 0,1 1,0 1,0 1,1 1,0 0,1 -1,0 0,1 0,1 1,0 1,1 0,1 0,1 1,0 0,1 -1,0 -1,0 0,1 -1,0 -1,0 0,1 -1,-1 -1,-1 -3,-1 -1,0 -1,0 -1,0 -1,-1 -1,0 0,-1 -1,-1 -4,-2 -1,-1 -1,0 -1,1 -1,0 -1,0 0,1 1,0 0,1 1,1 0,2 0,1 -1,0 0,1 1,1 0,1 -1,0 0,1 0,1 -1,2 -1,0 -1,1 -2,-1 0,-1 0,-1 1,0 0,-1 -1,0 0,1 -1,0 -1,0 -1,0 -1,0 -2,0 -2,-2 -1,0 -1,0 0,1 -1,0 -1,0 -1,1 -1,1 0,1 -1,-1 -2,-1 0,-1 -1,0 -1,0 -1,1 0,-1 0,-1 1,-1 1,-2 1,-1 0,-1 0,-1 -1,-1 0,-2 -1,1 -1,1 -1,0 -1,0 -1,0 -2,0 -1,0 -1,0 -5,0 -1,0 0,1 0,1 -2,1 -3,0 -2,-1 -1,0 -1,-1 -1,0 0,-1 -1,-2 -1,0 -1,0 -1,-1 1,-1 1,0 0,-1 1,0 1,0 1,-1 1,-1 1,-2 1,0 0,-1 1,-1 1,0 0,-1 0,-1 0,-1 -1,0 0,-1 -1,0 -1,0 0,1 0,-1 -1,0 -1,0 0,1 -1,0 0,-1 0,-1 -1,-1 -1,-1 0,-2 0,-1 0,-2 0,-1 -1,-1 -1,1 0,-1 0,-1 0,-1 1,-1 0,-1 0,-1 0,-1 -1,0 -1,0 0,1 0,1 -2,-1 -1,0 -1,0 -1,-1 0,-1 0,-1 0,-1 -1,-2 -4,-3 0,-1 0,-1 0,-1 -1,-1 -1,0 0,-1 -1,0 -1,0 -1,0 0,-2 1,-1 1,0 0,-1 0,-1 1,-1 0,-1 -1,0 0,-1 -1,-1 0,-1 1,0 3,-1 3,1 1,0 1,0 1,0 0,-1 1,0 1,0 1,0 1,0 1,0 0,-1 1,0 0,-1 1,0 1,2 0,1 1,1 1,0 0,-1 0,1 1,0 0,-1 1,0 1,0 0,-1 1,0 0,1 0,1 0,1 1,0 0,1 1,0 1,1 1,1 1,0 1,0 0,-1 1,0 0,-1 1,0 1,1 0,-1 1,0 0,-1 1,-1 1,0 1,-1 0,1 1,1 1,0 0,2 1,0 1,0 1,0 2,-1 0,1 1,0 1,-1 0,-1 3,-1 1,0 2,-1 1,0 1,0 1,0 1,0 1,0 0,-1 1,0 1,0 0,-1 0,-1 0,-1 1,0 0,-1 0,-1 1,0 0,-1 3,0 1,1 1,1 1,0 1,-1 1,0 0,1 1,0 1,0 0,1 0,2 1,0 0,1 1,0 1,0 1,0 1,0 0,1 0,1 -1,0 0,1 2,1 2,1 1,0 0,-1 1,0 0,-1 0,-1 1,-1 1,-1 1,0 1,0 1,0 1,0 0,-1 1,0 1,1 2,0 1,-1 0,-1 1,1 1,0 1,0 0,-1 1,0 0,-1 0,-1 0,-1 0,-1 1,-1 0,-1 0,-3 0,-1 1,-1 1,0 1,-1 1,1 0,-1 0,-1 1,-1 0,-1 1,0 1,0 1,1 0,-1 0,-1 1,0 0,-1 1,-1 1,0 1,0 0,1 1,0 1,1 1,0"
           id="path131" />
      </g>
      <g class="IN_WB">
        <path
           d="m 929,424 -1,0 -1,0 0,-2 0,-1 1,1 1,0 0,1 0,1"
           id="path134" />
        <path
           d="m 909,421 -1,0 -1,0 -1,-1 1,-1 1,-3 0,-1 1,0 1,3 -1,1 0,1 0,1"
           id="path136" />
        <path
           d="m 922,416 0,1 -1,0 0,-1 -1,0 0,-1 1,0 0,-1 1,-1 1,1 -1,1 0,1"
           id="path138" />
        <path
           d="m 908,415 -1,0 0,-1 0,-1 1,0 1,0 -1,1 0,1"
           id="path140" />
        <path
           d="m 908,278 1,0 1,-1 1,1 3,1 1,0 1,0 1,-1 2,-1 2,0 1,0 1,0 1,0 1,0 1,1 1,1 0,1 0,1 0,2 1,-1 1,0 0,1 1,0 1,0 1,0 0,1 1,0 0,1 1,1 1,0 1,0 1,0 1,0 0,-1 1,0 1,0 1,0 1,1 1,0 1,0 1,0 2,1 0,1 0,1 1,0 1,-1 1,1 1,0 1,0 1,0 0,-1 1,0 -1,1 1,1 0,1 0,2 0,1 0,1 -1,0 0,2 0,1 -1,0 1,0 0,1 -1,0 -1,0 0,1 0,1 -1,0 0,1 -1,0 -1,0 0,-1 -1,0 0,1 0,1 -1,0 0,1 1,0 -1,0 0,1 1,0 0,1 -1,1 0,1 -1,0 -1,-1 -2,0 -1,0 -1,0 -1,0 -1,-1 -1,0 0,-1 -1,-1 -1,0 -1,-1 0,-2 -1,-1 0,-1 1,0 0,-1 -1,0 0,-1 -1,0 -1,0 0,-1 -1,0 -1,0 0,1 -1,0 0,1 1,0 1,0 0,1 1,0 0,1 0,-1 0,1 1,0 0,1 -1,0 -1,0 -1,-1 -1,0 -1,0 0,1 -1,0 0,-1 -1,0 -3,0 1,-1 1,0 0,-1 -1,0 0,-1 -1,0 0,-1 -1,0 0,-1 -1,0 -1,0 -1,-1 -1,-1 -1,0 -1,-1 0,-1 0,1 -1,0 0,2 -1,1 1,0 0,1 0,-1 1,0 2,0 1,1 0,1 0,1 -1,0 -1,0 -1,1 -1,0 0,1 0,1 0,1 -1,0 -1,0 -1,0 0,1 -1,0 -1,1 0,1 0,1 -1,1 0,1 -1,1 0,1 0,1 1,0 -1,0 0,1 1,0 0,1 1,0 1,0 1,-1 1,1 2,1 1,2 1,0 0,2 1,0 1,1 1,1 1,0 1,0 0,1 1,0 1,0 1,-1 1,0 1,0 0,1 0,1 0,1 0,1 1,0 0,1 1,0 1,0 2,0 0,1 -1,1 -1,0 0,1 0,1 -2,-1 -1,0 0,1 -2,0 -2,-1 -1,0 -1,1 -1,0 -1,-1 -1,0 -1,1 0,1 0,2 0,1 -1,0 0,1 0,1 -1,1 0,1 -1,0 -1,-1 -1,0 0,-1 -1,0 -1,0 -1,0 0,1 1,1 0,1 -1,0 -1,1 0,1 -1,1 0,1 0,1 1,0 0,1 0,1 1,0 0,1 1,0 7,4 2,1 2,0 1,1 1,0 0,-1 0,-1 1,1 1,0 0,1 1,1 0,1 -1,0 0,1 -1,0 0,1 0,1 0,1 1,0 0,1 -1,0 1,1 0,1 0,1 -1,0 -1,1 -1,0 -1,0 0,1 0,1 0,1 -1,2 0,1 1,0 0,1 1,0 1,1 0,1 1,0 1,0 0,1 1,0 0,-1 0,1 -1,3 -1,1 0,1 0,1 1,0 1,1 1,0 0,-1 1,0 2,1 1,0 0,1 -1,0 -1,2 -1,0 0,2 0,1 1,1 0,1 1,1 1,0 0,1 0,1 -1,0 0,1 0,1 0,1 1,1 0,1 0,1 -1,0 1,0 0,1 1,1 0,1 0,1 0,2 1,1 -1,0 1,1 1,1 0,1 0,1 -1,0 0,1 0,1 1,0 0,1 0,1 0,1 -1,0 -1,0 0,1 -1,-1 0,-1 -1,0 0,1 1,1 1,0 1,1 0,2 0,1 1,1 0,1 1,1 -1,0 0,1 -1,-1 0,1 -1,0 0,-1 -1,0 -1,0 -1,-1 0,-2 0,-1 -1,1 0,1 0,1 1,0 0,1 -1,0 -1,0 0,-1 1,0 -1,0 0,-1 0,1 -1,0 0,1 1,0 0,1 0,1 -1,0 -1,0 0,-1 -1,-2 0,-1 1,-3 -1,0 1,-2 0,-1 0,-1 1,0 0,-1 0,-1 -1,0 0,-1 1,-1 -1,0 0,1 -1,0 0,1 1,0 0,1 -1,1 0,1 -1,0 -1,0 1,-1 0,-1 0,-1 0,-1 0,-2 1,0 0,-1 -1,0 0,1 0,1 -1,0 0,1 0,1 0,1 0,1 0,1 -1,2 0,1 0,1 1,0 1,1 -1,1 0,2 -1,0 0,2 -1,0 0,-1 0,1 0,1 -1,0 0,-1 0,-1 1,0 0,-1 0,-1 -1,-1 0,-1 1,0 0,-1 0,-1 0,-1 -1,0 1,-1 0,-1 -1,0 0,1 0,1 0,1 0,1 0,-1 0,1 -1,0 0,1 0,1 0,1 0,1 -1,1 -1,0 0,-1 0,-1 0,-1 0,1 -1,0 0,-1 0,1 0,1 0,1 -1,0 0,-1 0,-3 0,-1 -1,0 1,3 0,1 0,1 0,1 -1,0 0,-1 -1,0 0,-1 0,1 -1,-1 0,-1 0,-1 1,-1 -1,-1 1,0 -1,-1 -1,-2 0,-2 0,-1 2,-1 0,-1 -1,-2 -1,0 -1,-1 -1,0 0,-1 -1,1 0,-1 -1,0 0,-1 -1,0 0,-1 0,-1 0,-1 -1,-1 0,1 1,1 0,2 0,1 1,1 1,0 1,0 1,0 1,1 1,1 -1,1 0,1 -1,0 -1,1 -1,0 0,1 1,0 -1,0 0,1 -1,2 -1,1 -1,1 -1,0 0,1 -1,0 -2,1 -2,1 0,1 -1,-1 -1,0 -3,1 -1,0 0,-1 -1,-1 0,-1 0,-1 -4,-1 -1,0 0,-1 0,-1 0,-1 -1,0 -1,-1 -1,0 0,1 -1,0 0,1 -1,0 -1,-1 0,-1 0,-1 0,-1 -1,-1 -2,-1 -1,0 -2,-1 -1,0 -1,-1 0,-1 1,0 1,0 0,-1 1,0 1,0 0,-1 -1,0 0,-1 0,-1 -1,-1 -1,0 0,-1 0,-1 1,0 0,-1 -1,0 -1,-1 -1,0 -1,0 0,-1 -1,-1 -1,-2 -1,0 -1,0 -2,-1 0,-1 1,0 0,-1 0,-1 0,-1 1,-1 1,0 0,-1 -1,0 -4,0 -1,0 -1,0 -1,0 -1,0 -3,-4 -1,0 -1,0 -2,0 0,-1 -1,-1 0,-1 0,-1 1,-1 0,-1 0,-1 -1,0 -1,0 0,-1 1,0 0,-1 2,0 1,0 1,0 0,-1 0,-1 1,0 1,0 1,0 1,1 -1,1 0,1 1,0 1,0 1,1 1,0 1,-1 1,-1 0,-1 0,-1 1,0 1,-1 1,0 2,-1 1,0 2,-1 3,0 1,-1 1,-1 -1,0 0,-1 0,-1 1,0 0,-1 1,0 1,0 1,1 1,0 1,0 1,1 2,0 1,0 -1,0 0,-1 0,-1 1,1 1,0 1,0 0,-1 0,-1 1,0 0,-1 -1,0 0,-1 -1,0 0,-1 1,0 1,0 1,0 0,1 1,0 1,0 1,0 0,-1 1,0 0,-1 0,-1 1,0 1,0 0,-1 1,0 1,0 0,-1 0,-1 0,1 -1,-1 1,-1 1,0 1,-1 1,-3 0,-1 1,0 0,-1 0,-1 0,-1 -1,0 1,0 1,0 1,0 1,-1 -1,0 0,-1 0,-1 0,-1 -1,0 0,-1 -1,0 1,0 0,-1 1,-1 0,-1 0,-1 0,-2 -1,-1 -1,-1 -1,0 0,-1 0,-1 0,-1 1,0 0,-1 1,-1 0,-1 -1,-1 -1,0 0,-1 0,-1 1,0 0,-1 1,0 1,0 0,-1 1,0 1,0 0,-1 1,0 0,1 2,0 0,-1 -1,0 1,-1 0,-1 -1,-1 0,-1 -1,0 -1,-1 -1,0 0,-1 -1,-1 0,-1 -1,0 -1,-1 0,-1 1,-1 0,-1 1,-1 2,-1 0,-1 1,-1 1,0 1,-1 1,0 0,-1 1,-1 1,0 1,0 0,-1 1,0 0,-1 1,0 0,-1 -1,0 0,-1 1,0 -1,0 -1,-1 0,-1 -1,0 1,-1 -1,0 -1,0 -1,0 -1,0 1,-1 1,-2 0,-1 1,-1 0,-1 -1,-1 0,-1 0,-1 -1,0 0,-1 0,-1 -1,-1 -1,-1 -1,0 0,-1 -1,-1 1,-1 0,-2 1,0 1,1 0,1 1,0 0,1"
           id="path142" />
      </g>
      <g class="IN_BR">
        <path
           d="m 806,270 1,0 1,1 1,0 7,2 1,0 0,1 1,1 0,1 0,1 0,1 -1,1 0,1 1,0 3,1 1,0 1,0 0,1 1,0 1,0 0,1 1,0 0,1 1,0 1,0 -1,1 1,0 2,0 1,0 0,1 0,1 1,0 3,1 1,0 0,-1 1,0 1,0 1,-1 2,0 2,-1 2,1 1,1 -1,2 1,1 0,1 1,1 1,0 0,-1 0,1 1,0 1,0 1,-1 1,-1 1,0 1,0 2,1 0,1 1,0 1,0 1,0 1,-1 1,0 0,1 1,0 1,0 2,1 1,0 0,1 1,0 1,1 1,0 2,1 1,0 1,0 1,0 1,-1 1,0 0,-1 1,0 1,-1 1,0 1,-1 0,1 1,1 0,1 0,1 1,1 1,0 1,0 1,0 1,1 1,0 1,0 0,-1 1,-1 1,0 1,0 1,0 2,1 1,0 1,0 0,-1 1,0 1,1 1,-1 0,-1 1,1 1,0 0,-1 1,0 0,1 1,0 0,1 1,0 1,1 1,-1 1,-2 0,-1 0,-1 1,0 1,0 1,0 1,0 -1,1 1,0 0,1 1,1 1,0 -1,0 0,1 1,0 0,1 -1,0 0,1 -1,0 0,1 -1,0 -1,0 -1,1 0,1 -1,0 -1,1 -1,0 -1,1 0,1 -2,1 -1,1 0,1 -1,1 0,1 1,1 1,0 0,1 1,1 0,1 1,0 1,1 1,0 0,1 1,1 0,1 -1,1 1,0 0,1 -2,0 0,-1 -1,0 0,1 -1,0 -1,0 0,1 -1,0 -1,0 0,1 -1,0 0,1 0,1 1,0 1,1 0,1 -1,1 0,1 -1,-1 -1,0 -1,0 -1,0 -1,-1 -1,0 0,-1 -1,0 -1,0 -1,1 0,1 -1,0 0,1 0,1 -1,-1 -1,0 -1,0 0,1 -1,1 0,1 0,1 -1,-1 -1,1 -1,0 -1,1 0,1 0,3 0,1 -1,1 0,1 0,1 0,1 0,1 -1,0 0,1 -1,0 -1,0 -1,-1 0,1 -1,1 -2,0 -1,-1 -1,0 0,1 -1,0 -1,0 -1,0 -1,0 -1,1 -1,1 0,1 0,1 -1,0 0,1 -1,0 -2,-1 -2,-1 0,-1 1,0 0,-1 0,-1 -1,0 -1,0 -1,0 -1,0 0,-1 -1,0 0,-2 0,-1 -1,0 -1,0 0,-1 -1,0 -1,1 -1,0 -1,-1 -1,-1 -3,0 0,1 -1,0 0,1 0,1 -1,0 0,1 0,1 0,1 -1,0 -1,0 0,1 -1,0 -1,0 -1,0 -1,0 -1,0 -2,1 -1,0 -3,1 0,1 -1,1 -1,0 0,-1 -2,1 -1,0 -1,0 -1,0 0,-2 -1,0 -1,-1 0,-1 -1,1 -1,0 -1,1 0,1 -1,0 0,1 -1,-1 -1,0 0,1 -1,0 0,1 -1,0 -1,0 -1,-1 -1,-1 -1,0 0,-1 -1,0 0,-1 0,-1 0,-1 -1,0 0,1 -1,0 -1,0 0,1 -1,0 0,-1 0,1 -1,0 -1,-1 0,-1 -1,-2 -1,0 0,1 -1,0 0,1 -1,0 -1,0 -1,0 -1,0 -1,0 0,1 -1,0 -1,0 -1,0 -3,-1 -1,-1 1,-1 -1,-1 1,-1 0,-1 -1,0 0,-1 -1,0 -1,0 0,-1 -1,0 0,-1 -1,0 0,-1 0,-1 0,-1 0,-1 0,-1 -1,0 0,-1 1,-2 0,-1 1,-1 1,0 1,-1 1,0 0,-1 1,0 3,-2 3,-1 1,-1 0,-1 1,0 1,0 0,-1 1,0 2,-1 0,-1 2,-1 2,-2 1,0 1,0 0,1 0,1 1,0 0,1 1,-1 1,0 -1,-1 0,-1 1,0 0,-1 1,0 1,1 0,1 1,0 1,0 1,0 1,-1 1,0 0,-1 0,-1 -2,-1 -1,0 -1,0 -1,-1 -1,-1 -1,0 -1,0 -1,0 -1,0 0,-1 -1,-1 -1,-1 0,-1 -1,0 -1,0 -1,-2 0,-1 -1,0 0,-1 1,0 1,-1 1,0 1,0 1,0 -1,-1 0,-1 1,0 0,-1 -2,-1 -1,0 -1,-1 -1,0 -1,0 -1,0 0,-1 0,-1 1,0 0,1 1,-1 1,0 0,-1 1,0 0,-1 0,-1 1,0 1,0 1,0 1,1 4,-1 -2,-2 -1,0 -1,-1 0,-1 0,-1 0,-1 -1,0 -1,0 -1,0 0,-1 -1,0 -1,-2 0,-1 -1,-1 -1,-1 0,-1 -1,0 0,-1 0,-1 0,-1 -1,0 0,-1 -1,0 0,-1 1,0 0,-1 -1,-1 1,0 1,-1 0,1 1,0 1,0 1,-1 1,-1 1,0 1,1 1,0 0,1"
           id="path145" />
      </g>
      <g class="IN_SK">
        <path
           d="m 926,255 1,1 -1,1 1,0 0,1 0,1 -1,5 0,1 -1,1 0,1 -1,0 1,0 0,1 0,1 0,1 0,1 1,0 1,0 0,1 1,0 0,1 0,1 -2,0 -1,1 0,1 -1,0 0,1 -1,0 -1,0 -1,0 -2,0 -2,1 -1,1 -1,0 -1,0 -3,-1 -1,-1 -1,1 -1,0 0,-1 -1,0 0,-1 -1,-1 -1,0 1,-2 0,-1 0,-1 0,-1 0,-1 0,-1 0,-1 2,-3 1,-2 0,-1 0,-1 1,-1 -1,0 -1,0 0,-1 0,-1 0,-1 1,0 1,0 5,0 1,-1 1,-1 1,0 1,0 1,-1 1,-1 1,1 2,0 0,1 2,0 0,1"
           id="path148" />
      </g>
      <g class="IN_CT">
        <path
           d="m 795,370 1,0 1,0 2,1 0,-1 0,-1 1,0 1,0 0,1 0,1 0,1 -1,1 0,1 0,1 0,1 1,-1 1,1 0,1 0,2 0,1 0,2 1,1 1,1 0,1 0,1 1,0 0,-1 1,0 1,0 0,1 0,-1 1,0 1,0 0,1 1,0 0,1 0,1 0,1 -1,0 -1,1 0,1 -1,0 -1,2 -1,1 -1,1 -1,0 -1,0 0,1 -1,0 -1,1 0,1 1,1 0,1 0,1 -1,1 -1,0 -1,0 -1,0 -1,1 -2,2 -2,0 0,1 -1,0 -2,2 0,1 1,0 0,1 -1,0 0,1 -1,0 0,1 1,1 1,0 0,1 0,1 -1,1 -1,0 0,1 0,-1 -1,0 0,1 0,1 0,1 -3,3 0,1 0,1 -1,0 0,1 1,1 1,1 0,1 0,1 -1,0 -1,-1 -1,0 0,1 0,1 -1,1 -1,2 -1,1 -1,0 -1,0 -1,0 -1,0 0,-1 -1,0 -3,0 -1,0 0,1 -1,0 0,-1 -1,0 -2,0 0,1 0,1 -1,0 0,2 -1,2 -1,0 -1,0 0,1 -1,1 -1,1 -1,0 0,-1 -1,0 0,3 0,1 0,1 0,1 0,2 0,1 1,0 0,1 0,1 1,0 0,-1 0,1 0,2 0,1 0,1 0,1 0,1 0,1 0,2 0,1 1,0 1,1 1,0 1,0 0,1 1,0 1,-1 1,0 0,1 0,1 0,1 0,1 0,1 -1,0 0,1 -1,0 -1,1 0,-1 0,-1 0,-1 -1,0 -1,0 -1,0 -2,-1 -1,1 -1,1 -1,0 -1,-3 0,-1 -1,0 -1,0 0,-1 -1,0 -1,-1 -1,0 0,1 -1,0 0,-1 -1,-1 -1,0 -1,1 -1,0 0,1 -1,1 0,1 0,1 1,0 2,1 0,1 1,1 1,0 1,0 0,1 0,1 0,1 0,1 0,1 0,2 1,1 1,1 1,0 0,1 0,1 -1,0 1,1 0,1 0,1 0,1 0,1 0,1 0,1 1,0 0,1 1,1 0,1 0,1 0,1 -1,0 -1,1 0,1 0,1 0,1 -1,0 -1,0 0,1 -1,0 -1,0 -1,1 -1,1 -1,0 1,1 1,0 0,1 -1,0 -1,1 -1,0 0,1 -1,1 -1,0 0,1 -1,1 0,1 -1,0 -1,0 0,1 -2,1 -1,0 0,1 -1,0 0,1 1,0 -1,1 0,1 0,1 -1,0 0,1 0,1 0,1 0,1 -1,1 -1,-1 0,1 0,1 0,1 -2,0 -1,0 -1,0 -1,-1 -1,0 -1,0 -1,1 -1,0 -1,0 -1,-1 0,-3 0,-1 0,-1 -1,0 0,-1 0,-1 1,0 0,-1 -1,0 -1,0 -1,0 0,-1 0,-1 -1,0 0,1 -1,0 -1,0 0,-1 1,0 0,-1 -1,-1 0,-2 -1,0 0,-1 -1,-1 0,-1 -1,0 -1,-2 -1,0 -1,-1 -1,0 -1,0 -1,0 -1,0 0,-1 -1,0 0,-1 0,-1 -1,0 0,-1 0,-1 2,-1 0,-1 -2,-1 0,-1 0,-1 0,-1 2,-2 0,-1 1,0 0,-3 1,0 0,-1 1,0 0,-1 1,0 1,-1 0,-1 1,0 0,1 0,1 1,0 1,0 1,0 0,1 0,1 1,0 0,-1 1,0 0,-1 1,0 0,-1 0,-1 1,0 1,-1 0,-1 0,-1 -1,0 0,-1 -1,0 -1,0 0,-1 -2,0 0,-1 -1,-1 0,-1 -1,0 -1,0 0,-1 -1,0 0,-1 0,-1 -1,0 0,1 -1,0 1,0 -1,0 0,1 -1,-1 -1,0 1,0 0,-1 1,0 0,-1 -1,0 0,-1 0,-1 1,0 1,0 0,1 1,0 0,-1 0,-1 0,-1 0,-1 0,-2 -1,0 -2,0 0,-1 0,-1 0,-1 1,0 1,0 1,-1 1,0 0,-1 1,0 0,-1 0,-1 0,-2 0,-1 0,-1 0,-1 -1,0 0,-1 0,1 -1,0 -1,0 0,-1 1,-1 1,0 0,-1 -1,-2 0,-2 0,-1 0,-1 -1,0 -1,0 -1,-1 0,-1 0,-1 1,-2 0,-1 2,-1 2,-1 1,-1 0,-2 1,-1 0,-1 1,-1 0,-1 -1,-2 1,0 0,-1 0,-2 0,-1 1,0 1,-1 1,-2 -1,-1 1,-1 0,-1 1,-2 0,-1 1,0 1,0 0,1 1,0 0,-1 -1,-1 1,0 0,-2 1,0 0,-1 1,0 1,-1 0,-1 0,-1 0,-1 0,-1 1,-1 1,0 0,1 1,0 1,0 0,-1 1,0 1,-1 1,1 0,1 1,0 1,0 0,-1 1,0 0,-1 1,0 1,0 1,-1 1,0 0,-1 2,-1 0,-1 1,0 0,-1 0,-1 0,-1 0,-1 0,-1 1,0 1,0 0,-1 1,0 1,-1 0,-1 0,-1 0,-1 1,0 1,-1 2,0 1,0 1,-1 0,-1 0,-1 1,-2 0,-1 -1,0 -1,-1 -1,0 -1,0 0,-1 -1,0 -1,-1 0,-1 -1,-1 -1,0 -1,0 -1,0 -1,-1 -1,0 -1,1 -1,1 -1,0 0,-1 -1,-1 1,-1 0,-1 1,0 0,-1 1,0 0,-1 0,-1 -1,0 -1,-2 0,-1 1,-1 1,0 0,1 1,1 1,0 1,1 1,0 0,-1 2,0 0,-1 2,1 1,0 1,0 1,1 2,-1 1,1 1,0 4,0 2,0 1,0 1,-1 1,0 1,0 0,-1 0,-1 1,0 1,0 1,-1 0,-1 1,-1 1,1 1,1 1,0 1,1 1,-1 1,0 1,1 1,0 1,-1 1,0 1,0 0,-1 0,-1 1,0 0,-1 1,-1 0,-1 1,0 1,0 1,0 1,0 0,1 1,0 1,1 0,1 0,1 0,1 4,3 1,2 0,1 0,1 0,1 1,1"
           id="path151" />
      </g>
      <g class="IN_MP">
        <path
           d="m 655,286 1,0 1,1 1,0 1,0 1,1 0,-1 1,0 1,0 1,-1 1,1 1,0 1,1 1,1 1,0 1,0 0,1 0,1 1,1 1,2 1,1 0,1 0,1 0,1 0,1 -1,0 0,1 -1,0 -1,0 0,1 1,1 -1,0 0,1 0,1 1,0 0,1 -1,0 0,1 -1,1 0,1 -2,2 0,1 -1,1 -1,0 0,1 0,1 0,1 0,1 0,1 -1,0 -2,0 -1,1 -1,0 -1,0 -1,0 -3,1 0,2 -1,0 -1,2 -1,0 1,1 0,1 2,2 0,1 0,1 0,1 -1,1 0,1 1,0 -1,1 0,1 -2,1 -2,1 0,1 1,0 1,2 0,1 0,1 1,1 -1,0 0,1 1,0 0,1 -1,1 0,1 0,1 1,0 0,1 1,0 1,0 0,1 -1,1 0,1 1,0 1,0 1,0 0,-1 0,-1 1,0 1,0 1,0 1,1 1,1 1,1 1,0 1,0 0,1 1,0 0,1 1,0 0,-1 1,0 0,-1 1,0 0,-1 0,-1 1,0 0,-1 1,0 0,-1 0,-1 -1,0 0,-1 -1,0 1,0 0,-1 -1,0 0,-1 0,-1 -1,0 -1,-1 -1,1 -1,0 -1,-1 0,-1 1,0 0,-1 0,-1 0,-1 0,-1 -1,0 0,-1 -1,-1 -1,-1 0,-2 0,-2 -1,-2 -1,-1 -1,0 0,-1 0,-1 1,0 0,-1 1,0 0,-1 0,-1 1,0 1,1 1,1 1,0 0,-1 0,-1 0,-1 0,-1 1,0 1,1 0,1 1,0 0,-1 0,-1 1,-1 0,1 1,0 0,1 -1,0 0,1 1,0 1,0 0,1 -1,1 0,1 0,1 -1,0 -1,1 0,1 0,1 1,0 0,-1 1,0 0,-1 1,0 0,-1 1,0 1,0 0,1 -1,0 0,1 0,1 1,0 1,-1 1,0 0,1 0,1 0,-1 1,0 0,-1 1,1 1,0 1,0 0,-1 0,-2 0,-1 1,-1 -1,1 0,1 1,1 0,-1 1,0 1,0 1,0 0,-1 0,1 0,1 -1,1 -1,1 -1,1 0,1 1,0 1,0 0,-1 0,-1 1,0 0,1 1,0 0,1 0,-1 1,0 0,-1 1,0 1,0 1,0 1,0 2,0 1,0 0,1 1,0 1,-1 0,-1 -1,0 0,-1 1,0 1,0 1,-1 1,0 1,-1 2,-1 1,0 1,-1 1,0 0,-1 1,1 0,-1 1,0 0,1 1,0 0,1 0,1 0,1 1,0 0,1 1,0 0,1 1,0 0,1 -1,0 -1,0 0,1 -1,0 0,1 -1,0 0,1 0,1 1,0 1,0 1,0 1,0 -1,-1 1,0 0,1 1,0 1,-1 -1,-1 0,-1 1,0 0,1 1,0 0,-1 0,-1 1,0 0,1 1,1 1,0 1,0 1,0 -1,-1 -1,0 0,-1 1,0 2,0 0,-1 1,0 1,0 -1,2 0,1 0,1 -1,0 0,1 0,1 1,0 1,0 1,0 1,0 1,0 1,0 1,0 1,1 0,1 1,-1 1,0 0,-1 1,0 -1,-1 1,0 0,-1 1,-1 0,-1 0,-1 1,0 1,0 1,0 1,0 -1,1 1,0 0,1 1,0 0,-1 1,0 -1,-1 3,-1 0,1 1,1 0,1 1,0 1,1 1,0 1,0 0,1 1,0 0,-1 1,0 1,1 1,1 -1,0 0,1 1,0 2,2 1,0 1,0 2,1 1,0 1,-1 0,1 1,0 -1,1 1,1 0,-1 1,0 0,1 0,1 1,0 0,1 0,1 1,0 1,0 1,0 0,-1 0,-1 1,-1 2,1 1,0 1,0 2,0 1,0 0,1 1,0 0,1 1,0 0,1 0,1 -1,0 0,-1 -1,1 0,1 0,1 0,1 0,1 1,0 0,2 -1,1 0,2 -1,0 -1,0 0,1 1,0 0,1 1,0 0,1 0,1 1,0 1,1 -1,1 0,1 -1,1 -1,0 -1,0 0,1 0,1 -1,0 -1,0 -1,1 -1,0 -2,0 -4,0 -1,0 -1,-1 -2,1 -1,-1 -1,0 -1,0 -2,-1 0,1 -2,0 0,1 -1,0 -1,-1 -1,0 -1,-1 0,-1 -1,0 -1,1 0,1 1,2 1,0 0,1 0,1 -1,0 0,1 -1,0 0,1 -1,1 1,1 0,1 1,0 1,-1 1,-1 1,0 1,1 1,0 1,0 1,0 1,1 0,1 1,1 1,0 0,1 1,0 1,0 1,1 1,0 0,1 -1,2 0,1 0,1 -1,1 -1,0 -2,0 -1,1 -1,0 0,1 0,1 0,1 -1,1 -1,0 0,1 -1,0 -1,0 0,1 0,1 0,1 0,1 0,1 -1,0 0,1 -2,1 0,1 -1,0 -1,1 -1,0 -1,0 0,1 -1,0 0,1 -1,0 -1,0 0,-1 -1,-1 -1,1 -1,0 0,1 -1,0 -1,0 0,-1 -1,0 -1,1 0,1 0,1 0,1 0,1 -1,1 -1,0 0,1 -1,0 0,2 -1,0 1,1 0,1 -1,0 0,-1 -1,0 -1,0 0,1 -1,2 0,1 -1,1 1,1 -1,2 -1,1 -1,0 0,1 0,2 0,1 -1,0 1,2 0,1 -1,1 0,1 -1,1 0,1 -1,0 -3,-2 -1,0 -1,0 -1,0 1,-1 0,-1 -1,0 -1,-1 -1,-1 0,-1 -1,0 -1,0 -1,-1 -1,0 -1,1 -1,0 0,1 -2,0 -1,0 -1,0 -1,1 -1,0 -1,-1 0,-1 -1,0 -2,0 -1,0 -1,1 -1,0 -1,0 0,-1 0,-1 -1,0 -1,-1 -1,0 0,-1 -1,0 -1,0 -1,0 -1,0 -1,0 0,1 -1,0 0,1 -1,0 -1,0 -1,0 -2,1 -2,0 0,1 0,1 -1,0 -1,0 -1,1 -2,0 -1,0 -2,0 -2,0 0,-1 -1,0 -1,0 -1,0 0,-1 -1,-1 0,-1 -1,0 -1,0 0,1 -1,1 -2,0 -1,0 0,1 -1,0 0,1 -1,0 -2,1 -3,1 -1,0 -1,-1 -1,0 -1,1 -1,1 0,-1 -1,0 -1,0 -1,0 -1,0 -1,0 -1,0 0,-1 -1,-1 0,-1 0,-1 1,0 2,0 1,0 -1,0 0,-1 0,-1 0,-2 -1,0 0,-1 -1,0 0,-1 -4,0 0,1 -1,0 -1,0 0,1 -1,0 -1,0 0,-1 -1,1 -2,0 -1,0 -3,2 -1,0 -1,1 -1,0 0,1 0,1 0,1 -1,0 0,1 0,1 -1,0 -1,1 -1,0 0,1 1,1 0,1 -1,0 0,1 -2,0 -1,0 0,1 -1,0 -1,1 0,1 -1,0 -1,0 -1,0 -1,0 -3,0 -1,0 -1,-2 1,0 0,-1 0,-1 0,-1 -1,-1 0,-1 -1,0 -2,0 -1,-1 -1,0 -1,0 -1,0 -3,1 -1,0 -1,-1 -1,0 0,1 -1,0 -1,0 -1,0 -3,0 0,-1 -1,1 -3,-1 -1,-1 -1,0 0,-1 -1,0 -1,-1 0,-1 -1,0 0,-1 -2,0 -1,0 -1,-1 -3,1 -1,0 0,-1 -1,0 -2,-1 -1,-1 -1,0 0,-1 0,-1 -1,0 0,-1 0,-2 0,-1 -1,-2 -1,0 -1,1 -1,0 -1,0 0,1 -1,0 -1,0 -1,0 -1,0 0,-2 0,-1 0,-1 -1,-1 0,-1 -1,-1 0,-1 0,-1 0,-1 0,-1 1,0 0,1 1,0 1,0 1,0 0,-1 1,0 0,-1 -1,0 -1,0 -1,0 -1,0 0,-1 -2,-1 0,-1 1,0 2,0 1,0 1,-1 2,-1 0,-1 1,0 1,0 0,-1 2,-4 0,-1 -1,-1 0,1 -1,0 0,-1 -1,-2 0,-2 1,0 1,-1 1,1 1,0 2,-1 1,-1 2,0 1,-1 0,-1 -1,0 0,-1 -1,0 -1,0 -1,0 -1,0 0,-1 1,-2 2,-2 2,0 2,-1 1,-1 1,0 0,-1 1,-2 1,-1 0,-1 0,-1 -1,-1 0,-1 0,-1 0,-1 1,-3 1,0 0,-1 -1,0 0,-1 -1,0 0,-1 0,-1 0,-1 -1,0 0,-1 -1,0 0,-1 -2,1 0,-1 0,-1 0,-1 2,-1 0,-1 1,0 0,-1 -1,0 -3,-1 0,-1 1,-1 1,-2 0,-1 0,-1 0,-1 1,1 0,1 1,1 1,0 1,0 1,-1 0,-1 0,-1 -1,0 -1,0 -1,0 -1,0 0,-1 0,-1 0,-2 1,0 1,1 1,0 0,1 1,0 1,0 1,-1 1,0 0,-1 0,-1 0,-1 1,0 0,-1 1,0 1,0 1,0 1,0 1,0 -1,1 0,1 1,0 0,1 -1,0 -1,0 0,1 1,0 1,0 1,0 1,0 0,1 -1,0 -1,0 -1,0 -1,0 -1,-1 -1,0 0,1 1,0 0,1 -1,1 0,1 1,0 0,1 1,0 1,-1 1,0 0,1 2,0 1,0 3,-1 1,0 1,0 2,-1 1,0 1,0 0,1 1,1 0,1 0,1 1,1 0,2 0,1 -1,0 -1,-1 -1,0 0,1 0,1 0,1 0,1 0,1 1,0 0,1 0,1 -1,1 0,1 0,1 2,0 0,1 -1,0 -1,1 0,1 -1,0 -1,0 -1,0 -1,0 -1,0 0,-1 -1,0 0,1 -1,1 0,1 1,0 0,1 2,1 0,1 1,0 1,0 0,1 1,0 0,-1 0,-1 1,0 -1,-1 1,-1 0,1 1,0 1,0 1,0 1,-1 2,-1 1,0 0,-1 -1,0 0,-1 1,0 2,-1 1,-1 0,-1 0,-1 0,-1 0,-1 0,-1 1,-1 1,0 0,1 0,1 1,0 1,0 1,0 1,0 1,1 1,-1 1,0 0,1 0,1 1,0 1,0 0,-1 0,-1 1,0 1,-1 1,0 0,1 0,1 1,1 1,1 1,0 1,0 1,0 0,-1 1,0 0,-1 -1,-1 -1,-1 0,-1 0,-2 0,-1 0,-1 0,-1 0,-1 1,0 0,1 1,0 0,1 1,0 3,-1 0,-1 0,-2 -1,-1 -1,-1 -1,0 -2,0 -2,-2 0,-1 1,0 1,0 0,-1 1,0 0,-1 -1,0 0,-1 0,-1 0,-1 1,0 3,-1 1,0 1,0 3,-1 1,0 1,0 1,0 1,0 1,0 0,-1 0,-1 0,-1 -1,0 0,-1 0,-1 0,-1 0,-1 0,-1 -1,0 -1,0 -1,0 -1,1 0,1 -1,0 -1,0 -1,0 -1,0 -1,1 -2,0 -1,0 -1,0 0,-1 -1,0 -1,1 -1,-1 -1,0 0,-1 -1,0 -1,0 0,-1 -1,0 -1,0 0,-1 0,-1 -1,-1 -1,-4 0,-1 1,0 0,-1 0,-1 1,-1 1,-1 1,0 0,-1 1,0 1,0 1,0 1,-1 1,0 0,-1 1,-1 1,0 0,-1 1,-1 1,0 1,-1 1,-1 1,0 0,-1 1,0 1,0 1,0 1,-1 1,0 0,-1 1,0 0,-1 1,0 1,0 1,-1 0,-1 1,0 1,0 1,0 2,-1 0,-1 1,0 1,0 1,0 0,-1 1,0 1,0 0,-1 0,-1 1,0 1,0 0,-1 1,0 1,-1 1,0 1,0 1,0 0,-1 0,-1 0,-1 1,0 1,1 0,-1 1,0 1,0 1,-1 1,0 1,0 1,1"
           id="path154" />
      </g>
      <g class="IN_PY">
        <path
           d="m 691,699 1,-1 1,0 0,1 0,4 -1,0 0,-1 -1,0 1,0 -1,0 1,-1 -1,0 -1,0 -1,-1 0,-1 1,0 0,-1 1,1"
           id="path157" />
        <path
           d="m 690,673 1,-1 0,1 -1,0 0,1 1,0 1,0 0,-1 1,0 0,1 -1,1 0,1 -1,0 -1,0 -1,0 0,-1 0,-1 0,-1 -1,0 0,-1 1,0 1,1"
           id="path159" />
        <path
           d="m 577,668 0,1 -1,0 -1,0 -1,1 1,0 -1,1 -1,1 1,1 -1,-1 -1,-1 0,-2 1,0 1,0 1,-1 1,0 1,0"
           id="path161" />
        <path
           d="m 755,549 1,0 0,-1 1,0 0,1 -1,0 0,1 -1,0 0,-1 -1,0 0,-1 1,0 -1,1 1,0"
           id="path163" />
      </g>
      <g class="IN_TN">
        <path
           d="m 705,634 -1,-2 1,1 0,1"
           id="path166" />
        <path
           d="m 699,634 1,0 1,0 1,0 1,0 1,0 0,1 1,0 1,1 0,1 0,2 -1,1 0,-1 0,1 0,1 0,1 0,1 -1,1 0,1 0,2 0,3 -1,2 0,1 0,1 0,1 -1,0 0,1 0,1 0,1 -1,0 0,2 -1,1 -1,1 0,1 -1,0 -1,2 -1,1 -1,0 1,0 1,0 -2,2 0,1 -1,1 -1,1 0,1 0,1 -1,0 0,1 -1,0 -1,0 0,-1 1,0 0,-1 -1,1 -1,-1 -1,0 0,1 1,0 0,1 0,1 0,1 1,0 1,0 1,0 0,1 -1,0 0,1 0,2 0,1 -1,1 0,1 0,1 1,2 0,1 1,0 0,-1 -1,0 1,0 0,2 -1,0 -1,0 -1,2 -1,0 1,0 1,-1 1,0 0,-1 1,1 0,2 1,3 0,4 -1,0 -1,1 -1,-1 0,1 -1,0 0,1 1,1 1,0 1,0 -1,1 1,0 -1,0 1,0 0,1 1,0 0,1 0,5 0,1 0,4 0,2 0,1 -1,0 -1,0 0,-1 -1,0 -3,-1 0,1 1,0 1,0 1,0 1,1 -5,-1 -1,0 1,0 0,-1 1,0 -1,0 -1,0 0,1 -1,0 -1,0 -1,0 -1,0 -1,0 -1,1 -1,0 0,1 0,1 -1,0 0,1 0,2 0,1 1,0 -1,1 -1,1 -2,2 0,1 -1,0 0,1 0,1 -1,1 -2,2 0,1 -1,0 0,1 0,2 -1,1 1,0 0,1 1,1 2,2 1,0 1,0 3,1 1,-1 1,0 1,0 -1,1 1,0 0,1 2,1 1,1 -1,0 -2,-2 -2,0 -1,-1 -1,0 -1,0 -1,0 -1,0 -1,0 -1,0 -1,0 -1,0 -1,0 -1,1 -1,0 -1,0 0,1 -1,0 -2,0 0,1 -1,0 -4,1 -1,0 -1,0 0,1 -4,3 -1,1 -1,1 0,1 0,1 0,1 1,0 0,1 -1,0 0,1 -1,0 0,1 0,1 0,1 0,2 0,1 -1,1 -1,1 0,1 -1,0 -5,3 -1,0 0,1 -1,1 -3,0 -1,0 -1,1 0,1 -1,0 -2,0 -3,-1 -1,-1 -1,0 0,-1 -3,-2 0,-1 1,0 0,-1 0,-1 1,0 0,-1 0,-1 1,0 0,-1 1,0 0,-1 -1,-1 -1,-1 0,-1 -1,0 0,-1 1,-1 1,-1 0,-2 0,-1 -1,0 0,-1 -1,-2 1,-1 1,-1 0,-1 2,-5 0,-1 1,-2 1,-1 0,-1 -1,-1 0,-1 -1,0 -1,1 -1,0 0,-1 -1,0 0,-1 1,-4 0,-1 0,-1 0,-1 0,-1 0,-1 0,-2 -1,-1 1,0 1,-3 0,-1 -1,0 0,-1 0,-1 -1,-1 -1,0 -1,1 -1,0 -1,0 -1,1 -1,1 -1,0 -1,0 0,-1 -1,-1 -1,0 0,-1 0,-1 0,-1 0,-1 0,-1 0,-1 0,-3 1,0 0,-1 0,-1 1,0 0,-1 0,-1 -1,0 0,-1 -1,0 0,-1 -1,0 -2,-1 -1,-1 0,-1 0,-1 1,0 1,0 1,0 -1,-1 0,-1 -1,-1 0,-1 0,-1 -1,0 -1,1 -1,0 -1,0 -1,0 0,-1 -1,0 0,1 -1,0 0,-1 1,-1 1,-1 1,-1 -1,0 -1,-1 0,-1 -1,0 -1,0 -3,-1 -1,-1 0,-1 0,-1 0,-1 1,0 0,1 1,0 1,-1 0,-1 1,0 1,0 -1,0 1,-1 1,-1 1,0 1,1 0,1 1,0 4,0 1,0 1,1 0,-1 1,-1 0,-1 1,-2 1,0 1,0 0,-1 1,0 0,1 2,1 1,0 0,-1 1,0 1,0 1,0 1,0 1,0 0,1 1,0 1,-1 1,0 0,-1 1,-1 0,-1 1,0 0,-1 3,0 1,0 0,-1 1,-1 1,-1 0,-1 1,0 -1,-2 -1,0 -1,0 -5,0 0,-1 0,-1 0,-1 1,0 1,-1 1,0 0,-1 0,-1 1,-1 0,-1 -1,0 0,-1 -1,-1 1,0 0,-1 1,-2 1,0 1,0 1,-1 1,0 -1,0 0,-1 1,-1 1,-1 1,-1 1,0 1,0 0,1 1,1 1,0 0,-1 1,0 1,0 1,1 1,1 2,0 1,2 2,1 1,0 1,0 1,-1 1,0 0,-1 0,-1 0,1 1,0 1,-1 1,-2 0,-2 0,-1 0,-1 1,0 0,-1 1,0 0,-1 1,0 1,0 1,0 1,0 1,0 0,1 1,0 0,-1 0,-1 1,0 0,1 1,0 1,1 1,0 1,0 1,0 0,-1 1,0 1,-2 1,0 1,0 1,-1 1,0 1,-1 0,-1 0,-1 0,-1 1,0 1,0 1,0 0,1 1,0 0,1 2,-1 1,0 0,1 0,1 1,0 1,0 0,-1 -1,0 0,-1 1,0 1,0 1,0 3,-2 0,-1 0,-1 1,0 1,0 0,-1 0,-1 1,0 1,0 0,1 -1,0 0,1"
           id="path168" />
      </g>
      <g class="IN_GJ">
        <path
           d="m 494,343 1,0 1,0 1,-1 0,1 -1,0 -1,0 0,1 1,0 0,1 1,0 1,1 1,0 0,1 1,0 0,1 1,0 0,-2 1,0 1,0 1,1 1,0 1,0 0,1 1,1 1,0 1,0 1,0 1,1 1,0 1,-1 0,-1 1,0 0,-1 0,-1 1,0 1,0 1,0 0,1 0,1 0,1 2,0 1,0 0,1 -1,1 -1,0 -1,1 0,1 -1,1 1,0 0,1 1,1 1,1 1,0 0,1 0,1 1,0 1,-1 1,0 0,-1 0,-1 1,1 1,1 0,1 0,1 0,1 -1,1 0,1 0,2 1,0 1,1 0,1 1,0 1,0 0,1 0,1 -1,0 0,1 1,0 0,-1 1,0 1,0 0,1 1,0 0,1 -1,0 1,1 0,1 0,1 1,0 1,1 2,-1 1,0 1,2 1,1 1,-1 1,1 1,1 2,0 0,1 0,1 1,1 1,0 1,0 1,0 0,1 1,1 1,1 0,2 1,2 0,1 1,0 0,-1 1,1 0,1 -2,4 0,1 -1,0 -1,0 0,1 -2,1 -1,1 -1,0 -2,0 -1,0 0,1 2,1 0,1 1,0 1,0 1,0 1,0 0,1 -1,0 0,1 -1,0 -1,0 -1,0 0,-1 -1,0 0,1 0,1 0,1 0,1 1,1 0,1 1,1 0,1 0,1 0,2 -2,0 -2,1 -1,1 -1,0 -1,0 -1,0 0,1 -1,0 0,1 0,1 0,1 1,0 0,1 0,1 -1,0 -1,0 0,1 1,1 1,1 1,0 2,0 0,-1 1,0 1,0 2,0 1,0 1,0 1,0 1,0 1,0 0,-1 0,1 0,1 -1,1 -4,1 -1,-1 -1,1 -1,1 -1,0 0,1 0,1 -1,1 -1,0 -1,1 0,-1 -1,0 0,1 0,1 -1,0 -1,1 -1,0 -1,0 -2,-1 0,1 1,1 1,0 1,0 1,0 0,1 1,1 1,0 1,1 1,1 0,1 1,1 0,2 0,1 0,1 -2,1 0,1 0,1 -1,0 0,1 -1,0 -1,1 -2,0 -1,-1 0,-1 -1,0 -1,0 0,-1 -1,0 0,-1 -1,0 -1,1 -1,0 0,1 1,0 0,1 1,0 0,1 0,1 0,1 -1,2 -1,1 0,1 1,0 0,1 0,1 -1,1 0,1 -1,0 -1,-1 -1,1 0,1 -1,0 0,1 -1,0 0,-2 -1,0 -1,0 0,1 -1,0 0,-1 -1,-1 1,0 1,-1 1,0 0,-1 -1,0 -1,0 0,-1 -1,1 -1,0 -1,0 0,1 -1,0 0,1 1,0 0,1 0,1 -1,1 -1,0 -1,0 -1,0 -1,0 -1,1 0,-1 0,-1 1,-1 0,-1 0,-1 0,-1 0,-1 1,0 0,-1 1,0 1,0 0,-1 0,-1 0,-1 -1,0 1,-1 1,-1 0,-1 -1,0 0,-1 1,0 0,-1 0,-1 0,-1 1,0 0,-1 -1,0 0,-1 0,1 -1,-1 1,-1 -1,0 -1,1 0,-1 1,-1 -1,-1 1,0 0,-1 1,0 -1,0 -1,0 0,-1 -1,0 -1,-1 1,0 1,1 0,-1 1,0 -1,-2 -1,0 -1,1 0,-1 0,1 -1,0 0,-1 0,-1 -1,0 0,1 0,1 -1,0 -1,0 0,-1 1,0 1,-1 1,-1 1,0 -1,0 -1,0 0,-1 -1,0 0,-1 0,1 -1,0 0,-1 0,-1 0,-1 1,0 -1,0 -1,0 0,-1 2,0 1,-1 1,-1 1,1 0,-1 -2,0 0,1 -2,0 0,1 0,-1 1,-1 0,-1 1,-1 1,0 1,0 1,-1 1,-1 1,0 1,0 1,-1 1,0 1,-1 2,-1 1,0 0,-1 0,1 -1,0 -1,0 -1,1 -1,0 -1,0 0,1 -2,-1 -1,1 -1,0 -1,0 -1,0 -1,0 -1,0 -1,0 -1,0 -1,0 0,-1 1,-1 0,-1 0,-1 0,-1 1,0 0,-1 1,-1 1,0 1,0 0,-1 1,0 -1,0 0,-1 0,1 -1,0 -1,0 -1,1 -1,1 -1,-1 0,-1 -1,0 1,0 0,-1 0,-1 0,-1 0,-1 1,-1 0,-1 1,0 1,0 1,0 0,1 1,0 1,0 1,-1 1,-1 1,0 0,1 1,0 0,-1 0,-1 -1,1 0,-1 -1,0 -1,0 0,1 -1,0 -1,0 -1,-1 -1,0 -1,0 -1,0 -1,1 -1,0 -1,0 1,0 -1,0 0,-1 0,1 -1,0 -1,-1 0,-1 1,0 0,-1 -1,0 0,1 -1,0 0,1 0,1 -1,0 -1,-1 -1,-1 0,1 -1,0 -1,0 1,1 1,0 1,-1 0,1 -1,0 1,0 1,0 1,2 -1,2 0,1 0,1 -1,0 -1,0 0,1 0,-1 -1,0 0,1 -1,0 0,-1 -1,0 1,1 -1,0 -1,0 1,0 0,1 -1,0 -1,0 2,0 0,1 1,-1 0,1 1,0 -1,0 1,0 0,1 0,1 -1,-1 -1,0 -1,-1 0,1 1,0 0,1 -1,0 -1,-1 -1,0 0,1 0,1 1,0 1,0 1,0 2,0 0,1 1,0 0,1 1,0 1,1 0,1 0,1 -1,3 -1,1 -1,1 0,1 -1,0 -1,1 0,1 0,1 0,1 0,1 -1,0 -2,1 -2,0 -3,2 -1,1 -1,0 -1,0 -1,1 -1,1 -1,0 0,-1 -1,0 -1,1 0,1 -1,0 -2,1 -1,0 -5,3 -1,0 -1,0 -1,0 -1,0 0,1 -4,0 -1,0 -1,0 -1,0 -1,-1 -4,-2 -1,0 -1,-1 -1,-1 -2,-1 -1,0 -1,-1 -3,-3 -2,-1 -2,-3 -1,0 0,-1 -1,-1 -2,-2 -1,-1 0,-1 -1,0 -3,-4 -2,0 0,-1 -1,-1 -1,0 0,-1 -1,-1 -1,0 0,-1 -1,0 1,-1 -1,0 -1,0 -2,-2 -1,-1 -1,0 -1,-2 -1,0 0,-1 -1,-2 -1,0 -1,-1 0,-1 -1,-1 0,-1 0,-1 0,-1 1,0 0,-1 1,-1 1,0 0,1 0,1 1,0 1,0 1,-1 1,1 -1,1 0,1 0,1 1,0 2,0 1,-1 1,0 2,0 1,-1 1,0 0,-1 0,-1 1,0 0,1 0,1 1,0 1,-1 0,1 0,-1 1,0 1,-1 0,-1 1,0 1,1 1,0 0,-1 1,0 1,0 1,-2 1,0 1,0 1,0 2,0 1,0 0,-1 1,-1 0,-1 1,-1 2,-2 0,-1 0,-1 1,-1 1,-1 1,0 0,-1 1,0 1,-1 0,-1 0,-1 -1,0 0,-1 -1,0 0,1 -1,0 0,1 0,1 0,1 0,1 -1,0 -1,0 -1,0 -1,-1 -1,-1 0,1 0,1 -1,0 -1,-1 -1,0 0,1 1,0 -1,0 -1,0 -2,1 -1,0 -2,1 -1,0 -1,0 0,1 -1,0 -1,2 -1,0 -1,0 -1,0 -1,-1 -1,0 -1,0 -2,-1 -1,0 -1,0 -3,-1 -2,-1 -3,-1 -4,-2 -5,-3 -1,-1 -1,-1 0,-1 0,-1 0,1 -1,0 -1,-1 1,-1 1,0 0,-1 -1,0 -1,0 0,-1 0,-1 -1,0 0,1 -1,0 0,-1 -1,0 0,-1 1,0 0,-1 1,0 -1,0 0,-1 0,1 -1,0 0,-1 0,-1 0,-1 1,0 1,0 -1,0 0,-1 1,0 1,0 1,-1 0,-1 1,0 1,0 0,-1 1,-1 1,0 1,0 0,-1 2,-1 -1,0 0,1 -1,-1 -1,1 -1,1 -1,0 -1,0 0,1 -1,0 -1,1 -1,0 -1,1 -1,0 -2,2 0,1 -1,0 -2,0 -1,0 -1,0 0,-1 1,0 0,-1 1,0 0,1 1,-1 1,-1 -1,1 -1,0 0,-1 -1,0 0,-1 0,-1 0,1 -1,0 1,-1 0,-1 0,-1 1,0 0,-1 1,0 0,-1 1,0 0,1 0,-1 1,0 0,-1 0,1 1,-1 1,0 3,0 3,0 2,0 0,-3 0,-3 0,-2 1,-1 1,0 1,2 1,-1 0,-1 1,0 1,1 0,1 1,0 0,-1 2,0 1,0 1,1 1,0 1,0 2,-1 7,0 1,0 2,2 1,1 1,0 6,0 1,0 1,-1 1,-2 0,-1 1,0 2,0 1,0 1,-1 1,0 1,0 1,-1 3,-1 1,0 0,1 0,1 0,1 0,1 1,1 4,0 1,0 1,-1 1,0 -1,0 0,-1 1,0 1,-1 1,0 1,0 1,0 0,-1 1,0 1,0 -1,-1 -1,0 -1,-1 0,-1 0,-1 -1,0 0,-1 0,-1 1,0 1,-1 1,0 0,-1 1,0 1,1 2,1 1,0 0,-1 1,0 1,0 1,0 1,0 1,0 1,-1 2,0 1,1 1,0 3,0 1,0 0,1 1,0 0,-1 1,-1 0,1 1,0 1,0 1,-1 1,0 1,0 0,1 1,0 2,1 1,0"
           id="path171" />
      </g>
      <g class="IN_GA">
        <path
           d="m 540,578 1,0 1,-1 1,0 1,0 1,0 1,0 1,1 0,2 0,1 0,1 0,1 0,1 1,1 0,1 0,1 -1,0 0,1 1,0 0,1 -1,2 0,1 0,1 0,1 0,1 -1,0 0,1 -1,0 -1,0 -1,1 0,-1 -2,0 0,-1 0,-1 -1,-1 0,-1 -2,0 0,-1 1,0 0,-1 1,0 -1,-1 0,1 -1,-5 -1,-1 -1,0 -1,-1 1,0 1,0 1,0 1,0 0,1 1,0 -1,0 0,-1 -1,-1 -1,0 -1,0 -1,0 0,-1 1,0 1,-1 -2,1 -1,0 0,-1 0,-1 0,-1 0,-1 1,0 1,0 -1,-1 0,1 -1,0 -1,1 0,-1 0,-1 -1,0 0,-1 1,0 2,0 0,-1 1,0 0,-1 0,1 1,0 1,1 1,2 1,1"
           id="path174" />
      </g>
      <g class="IN_AR">
        <path
           d="m 1120,223 1,0 1,-1 1,0 0,1 -1,1 0,1 -3,0 -1,1 1,2 2,-1 2,0 0,1 2,1 0,1 1,0 1,1 0,1 0,1 2,1 0,1 0,2 -2,1 -2,1 1,1 -1,2 1,0 0,2 1,0 0,-2 0,-1 1,-1 2,-1 2,1 2,2 1,1 2,1 0,2 1,0 1,0 1,0 2,-1 1,1 1,1 1,0 0,1 1,0 1,1 1,0 0,1 -1,2 0,1 1,0 1,1 0,1 0,1 -1,0 0,1 0,1 -1,0 0,-1 -1,0 0,1 -1,0 -1,1 -1,1 -1,0 0,1 -1,0 0,1 -1,0 -1,0 0,1 -1,1 -1,0 0,1 -1,0 0,1 0,1 1,0 0,1 -1,1 1,1 0,1 4,4 1,1 0,1 1,0 0,1 0,1 -1,0 -1,0 -1,0 0,-1 -4,-1 0,-1 0,-1 -1,-1 -1,-1 -1,-1 -1,0 -1,0 -1,0 -1,0 -1,1 -1,0 0,1 -1,0 0,-1 -2,0 -7,1 -1,1 -2,1 -1,1 -1,2 -1,1 -1,1 -2,0 -1,2 -1,1 -1,0 -1,0 0,1 -1,0 0,1 -1,0 -1,0 -1,0 0,1 -1,1 -1,1 -2,1 -1,0 -1,0 0,-1 -1,-1 0,-1 1,0 0,-1 -1,0 0,-1 0,-1 1,0 0,-1 0,-1 -1,0 0,-1 -1,0 0,-1 1,0 1,0 1,-1 2,-1 1,0 1,-1 1,0 0,-1 0,-1 1,-1 1,0 1,0 0,1 1,0 4,-1 1,0 1,0 1,0 1,-1 1,0 0,-1 1,0 0,-1 0,-1 -1,0 0,-1 -1,0 0,1 -1,1 0,-1 0,-1 -1,0 1,-1 0,-1 -1,-1 -1,0 0,-1 -1,0 0,-2 0,-1 1,-1 2,-2 1,-2 0,-1 1,0 0,-1 -7,0 -1,1 -2,1 -1,0 0,1 -2,0 -2,0 -1,0 -1,0 -1,0 -1,1 -8,2 -1,1 -2,1 -1,0 -2,0 -1,1 -2,0 -1,1 -1,0 -1,1 -1,-1 -2,1 -1,-1 -1,0 -1,-1 -1,1 0,1 1,0 0,1 -4,3 -1,1 -1,1 -1,0 0,1 -1,0 -3,3 0,1 0,1 0,1 -1,0 -1,1 -1,1 -2,1 -1,0 -1,0 -1,0 -1,0 -1,1 0,-1 -1,0 -1,-1 -9,1 -1,0 -1,0 0,-1 -1,0 -2,-1 -2,0 -1,-1 -1,1 -1,0 0,1 -1,0 -1,0 -2,1 -3,0 -1,1 -1,0 -1,0 -1,0 -3,0 -1,0 1,0 -1,-2 0,-1 -2,-1 0,-1 0,-1 1,0 0,-1 0,-1 1,0 1,-1 0,-1 -3,-4 -1,0 -1,1 -1,0 -2,0 -1,0 -1,-1 -1,0 -1,0 0,-1 -1,-1 -1,-2 0,-1 2,-2 0,-1 3,0 2,0 0,1 1,0 1,0 1,0 1,0 1,0 1,-2 1,0 1,0 2,0 1,0 -1,0 0,-1 1,0 1,1 0,1 1,-1 0,-1 0,1 1,0 0,-1 1,0 0,1 1,0 1,-1 1,0 1,-1 1,0 1,-1 1,0 0,-1 0,-1 1,-1 -1,0 -1,0 0,-1 0,-1 1,0 1,-1 1,-1 1,0 1,0 1,0 1,-1 0,-1 1,0 1,0 0,-1 3,-1 0,-1 1,-1 0,-1 0,-1 1,0 1,-1 1,-1 2,-1 1,0 2,-1 3,-1 1,1 1,0 0,-1 1,0 1,0 2,-1 0,-1 2,0 0,-1 1,0 0,-1 1,0 1,0 1,0 2,-1 1,0 1,-1 2,0 1,-1 2,-2 -1,-1 -1,0 0,-2 1,0 1,0 0,-1 1,0 2,0 0,-1 1,0 2,-2 1,0 1,0 1,1 1,1 0,2 1,0 1,0 1,0 1,0 2,1 0,-1 -1,0 1,0 2,0 1,1 1,0 2,1 0,1 2,0 0,-2 1,0 1,-1 1,1 1,-2 0,1 1,1 0,-1 1,1 0,-1 0,-1 1,0 0,-1 1,0 1,0 2,0 1,-1 0,-2 1,0 2,1 2,-1 2,0 2,-1 1,0 1,1 0,1 0,1 1,0 1,1"
           id="path177" />
      </g>
      <g class="IN_MZ">
        <path
           d="m 1032,350 2,-1 1,0 1,0 0,1 1,0 0,1 -1,0 0,1 0,1 0,1 -1,0 0,1 0,1 0,1 2,0 1,1 1,0 1,0 1,0 1,0 0,1 1,-1 0,1 0,1 1,0 0,1 1,1 0,1 0,3 1,1 1,0 0,1 -1,6 0,2 0,1 -1,0 0,1 0,1 0,2 0,1 -1,2 -1,1 -1,0 -1,0 0,-1 -1,0 -1,0 0,1 0,1 1,1 0,1 0,1 -1,1 -1,1 -1,2 0,1 1,0 0,1 0,1 0,1 0,1 0,1 1,0 0,1 1,1 0,3 0,1 -1,0 0,1 0,1 -1,0 0,-1 -1,0 -1,0 0,2 0,1 -1,0 0,1 0,1 0,1 -1,0 0,-1 -1,0 0,1 -1,1 0,-1 0,-1 -1,-1 -2,-1 -1,-1 -1,-1 0,1 0,1 -1,0 0,1 1,0 0,1 -1,0 -1,0 0,1 -1,0 0,-2 -1,-2 1,0 0,-1 -1,-9 0,-1 -1,0 0,-2 0,-2 0,-1 -1,0 0,-1 -1,-2 0,-1 -1,0 0,-1 0,-1 0,-1 -1,-4 0,-1 0,-1 1,0 0,-1 -1,-1 0,-1 0,-1 -1,-1 0,-2 -1,-3 0,-2 0,-2 0,-1 1,0 0,-1 1,0 0,-1 0,-1 0,-1 0,-1 0,-1 0,-1 0,-3 -1,0 0,-1 2,0 1,0 1,0 -1,1 0,1 1,0 0,1 1,0 1,-1 1,-1 1,0 0,-1 1,0 0,-1 1,-2 1,0 0,-1 1,-2 1,0 1,2 0,1 1,0"
           id="path180" />
      </g>
      <g class="IN_TR">
        <path
           d="m 1017,353 0,1 1,0 0,3 0,1 0,1 0,1 0,1 0,1 0,1 -1,0 0,1 -1,0 0,1 0,2 -1,0 0,1 -1,0 0,-1 -1,-1 -1,1 -1,1 -1,1 -1,-1 -1,-1 0,-1 -1,1 0,1 1,3 0,1 -1,1 0,1 -1,0 -1,1 -1,1 -1,1 0,1 0,1 0,1 1,2 0,1 0,1 -1,0 0,1 -1,0 -1,1 -1,0 -1,0 0,1 0,-1 -1,0 -1,0 0,-1 0,-1 -1,0 0,-2 0,-1 -1,0 0,-1 -1,-1 -1,0 0,1 0,1 0,2 0,1 -1,-1 -1,0 0,-1 0,-5 -1,0 1,-1 -1,0 0,-1 -1,-1 0,-1 -1,-1 0,-1 -1,-2 0,-1 1,0 0,-1 -1,0 0,-1 1,0 1,-1 0,-1 0,-1 0,-1 1,-2 1,-1 1,1 0,-1 0,-1 0,-1 1,0 1,0 2,0 1,0 1,0 1,0 0,-1 1,-2 0,1 1,0 0,1 1,0 0,-1 0,-1 0,-1 2,1 1,1 1,0 1,-2 0,-1 0,-1 0,-1 1,1 1,0 -1,-1 2,0 1,0 1,-1 0,-1 0,-2 1,0 0,-1 1,0 1,1 0,1 0,1 1,0 0,1 0,1 0,1 -1,1 0,1 2,0"
           id="path183" />
      </g>
      <g class="IN_DD">
        <path
           d="m 511,454 -1,0 0,-1 0,-1 0,-1 1,0 0,1 0,1 0,1"
           id="path186" />
        <path
           d="m 462,445 0,-1 1,0 -1,1"
           id="path188" />
      </g>
      <g 
        class="IN_JK"
        style="fill:#DDDDDD;">
        <path
           d="m 642,62 0,-1 2,-1 2,0 0,1 0,1 -1,2 0,2 1,2 2,3 0,1 1,2 0,1 1,1 0,1 2,5 0,1 1,0 2,1 6,1 1,0 2,2 2,1 1,0 1,1 1,0 0,1 1,0 0,1 0,1 0,1 -2,2 -2,1 -2,1 -1,2 2,3 0,2 0,1 0,5 1,2 0,1 3,2 1,2 1,0 1,0 0,1 1,0 0,1 1,0 0,2 0,1 0,1 -1,0 1,2 1,0 2,2 0,1 -2,1 2,1 0,1 0,2 0,1 -1,1 0,1 0,2 -1,0 -1,0 0,1 -1,0 0,2 -1,0 -1,0 -1,0 -1,1 -1,0 0,-1 -1,-1 -2,-1 -1,-1 0,-1 0,-1 0,-1 0,-1 -1,0 0,1 -1,0 0,1 -1,0 -1,0 -4,0 -1,0 0,1 -1,0 -1,2 -1,0 0,-1 0,-1 0,-1 1,-1 1,-1 1,0 0,-1 0,-1 -1,-1 -1,0 0,1 -1,0 -1,1 -1,0 -1,0 -1,0 0,1 -1,0 -1,1 -1,0 -1,-1 -1,-1 0,-1 0,-1 -1,-1 -1,-2 -1,-1 -1,-1 -1,-1 -1,0 0,-1 0,1 -1,0 -1,0 0,1 -1,0 -1,1 -1,0 -1,0 -1,1 -1,0 -1,0 -4,-1 -2,0 -1,-1 -2,-1 -2,-1 -1,-1 -1,-1 -1,0 -1,-2 -1,0 -3,0 -2,-1 -1,0 -3,1 -1,0 -2,1 0,1 -1,1 -1,1 -1,0 -2,1 -1,1 -2,1 -1,0 0,1 0,-1 -1,0 -1,-1 -1,0 0,1 -1,0 1,0 0,1 1,1 0,1 1,0 0,1 0,1 0,1 1,1 0,1 -1,0 -1,1 0,1 -1,1 -1,0 -1,1 0,1 -1,0 -1,0 -2,1 -1,0 0,1 -1,1 -1,0 -1,-1 -1,0 -2,0 -1,0 -1,-1 -1,0 -2,-1 -1,0 -1,-1 -1,0 -1,0 -1,0 -1,0 -2,0 -1,0 -1,0 -1,0 -1,0 0,-1 -1,-2 0,-1 1,-1 -1,-1 0,-1 1,-1 0,-1 0,-1 -1,0 0,1 -1,1 -1,0 -1,0 -1,0 -1,0 0,-1 -1,0 0,1 -1,0 -1,0 0,-1 -1,0 1,-1 0,-1 0,-1 0,-1 0,-1 -1,0 -3,-1 -2,-2 -1,-1 -1,0 0,-1 -1,-1 0,-1 1,0 1,-1 1,0 0,-1 1,-2 1,-2 -1,-1 -1,-1 -2,-1 -1,-1 0,-1 -1,0 1,-1 0,-1 1,-1 0,-1 3,0 1,0 1,-1 1,-1 1,-1 -1,-1 -1,-1 -1,0 0,1 -1,0 -2,-1 -2,1 -1,0 -1,-1 0,-1 -1,0 1,-1 0,-1 2,0 0,-1 0,-1 -1,-2 -1,0 -1,0 -1,0 -1,-1 0,-1 0,-1 1,-1 1,-1 0,-1 1,0 1,-1 0,-1 -1,0 0,-1 1,0 1,-1 4,0 2,-2 2,0 2,0 1,0 7,2 9,1 2,0 2,0 1,0 1,0 0,1 1,0 1,1 1,0 6,2 2,0 1,0 1,0 1,0 1,-1 1,-1 2,-1 1,0 0,-1 1,-1 1,0 2,1 1,0 2,-1 4,-2 1,0 1,0 1,1 1,0 2,-1 1,0 2,-2 0,-1 0,-1 1,0 1,-1 1,0 1,0 0,1 1,0 0,-1 2,-1 1,-1 -1,-1 1,-1 10,-5 9,-5 1,0 0,1 1,0 1,1"
           id="path199" />
      </g>
      <g
         class="disputed_3"
         style="fill:url(#diagonalHatch);">
        <path
           d="m 683,51 1,-1 1,0 1,0 0,1 1,0 0,1 0,1 0,1 1,2 1,0 2,0 0,1 1,0 0,1 1,0 1,-1 1,1 1,1 0,1 1,1 0,1 1,0 1,0 1,-1 1,-1 0,-1 1,-1 1,0 0,1 1,1 1,0 0,-1 1,1 0,1 0,1 -2,2 -1,1 1,1 0,1 0,1 -1,0 -1,1 0,1 -1,1 0,4 0,1 0,1 -2,1 0,1 0,1 -1,1 0,1 -1,0 -2,0 -1,0 -1,0 0,1 -1,1 -1,0 -1,0 0,1 -1,0 0,1 1,0 0,1 -1,1 -1,0 -1,0 -2,0 -1,0 0,1 0,1 1,2 0,1 0,1 -1,0 -1,0 0,1 1,1 -1,0 -1,1 -1,1 0,1 -7,-1 -1,0 0,1 -1,0 -3,0 -1,0 0,1 0,1 1,1 0,1 0,1 1,1 1,0 0,1 0,2 0,1 -1,0 -1,-1 -1,1 0,1 0,1 0,1 0,1 0,1 1,1 -3,-2 0,-1 -1,-2 0,-5 0,-1 0,-2 -2,-3 1,-2 2,-1 2,-1 2,-2 0,-1 0,-1 0,-1 -1,0 0,-1 -1,0 -1,-1 -1,0 -2,-1 -2,-2 -1,0 -6,-1 -2,-1 -1,0 0,-1 -2,-5 0,-1 -1,-1 0,-1 -1,-2 0,-1 -2,-3 -1,-2 0,-2 1,-2 0,-1 0,-1 -2,0 -2,1 0,1 -1,-1 -1,0 0,-1 -1,0 1,0 1,0 1,0 1,-1 1,-1 3,1 1,0 0,-1 0,-1 1,0 1,-1 1,0 0,-1 1,0 0,-1 1,0 1,0 1,-1 1,0 2,0 1,-1 3,-1 1,-2 1,0 1,0 1,0 2,0 0,1 1,-1 3,-1 4,0 2,-1 1,0 1,0 1,1 1,0 0,1 0,1 1,1"
           id="path204" />
        <path
           d="m 678,138 -1,0 -1,0 0,-2 0,-1 1,-1 0,-1 0,-2 0,-1 -2,-1 2,-1 0,-1 -2,-2 -1,0 -1,-2 1,0 0,-1 0,-1 0,-2 1,0 2,1 1,0 2,0 1,1 0,1 -1,0 0,1 0,2 -1,0 0,1 1,1 1,1 1,1 0,1 1,1 1,0 0,1 0,1 -1,1 -1,1 -2,2 -2,1"
           id="path194" />
      </g>
      <g
         class="disputed_2"
         style="fill:url(#diagonalHatch);">
        <path
           d="m 618,58 1,0 1,0 1,0 0,1 1,0 1,0 2,0 1,0 1,0 1,1 1,0 0,1 2,-1 1,0 4,1 1,0 0,-1 1,0 1,0 -9,5 -10,5 -4,-7 -3,-7 1,0 1,0 1,1 0,1 1,0 1,0"
           id="path219" />
      </g>
      <g
         class="disputed_1"
         style="fill:#dcc99d;">
          <path
             d="m 562,21 1,1 0,1 1,0 0,-1 1,-1 1,0 1,0 2,0 1,0 1,1 1,0 3,1 1,0 1,1 0,1 0,1 0,1 1,1 1,0 1,0 0,-1 1,0 2,0 3,1 1,1 2,1 0,1 3,4 0,1 0,2 0,1 1,1 0,1 -1,0 0,1 0,1 -2,0 0,1 0,1 1,1 0,1 1,0 2,0 1,0 1,1 0,1 0,1 0,1 1,1 1,0 1,0 0,-1 1,1 1,0 1,-1 1,0 1,0 0,-1 1,0 1,0 1,-1 0,1 0,2 0,1 1,1 2,0 1,1 1,0 0,1 1,0 3,7 4,7 -1,1 1,1 -1,1 -2,1 0,1 -1,0 0,-1 -1,0 -1,0 -1,1 -1,0 0,1 0,1 -2,2 -1,0 -2,1 -1,0 -1,-1 -1,0 -1,0 -4,2 -2,1 -1,0 -2,-1 -1,0 -1,1 0,1 -1,0 -2,1 -1,1 -1,1 -1,0 -1,0 -1,0 -2,0 -6,-2 -1,0 -1,-1 -1,0 0,-1 -1,0 1,-1 0,-1 0,-1 0,-1 -1,-1 -1,-1 -1,0 -1,1 -1,0 -1,0 0,1 -1,0 -1,0 -2,-1 -2,0 -3,-2 -1,-1 -1,-1 -1,-1 0,-1 -1,-1 -1,0 -2,0 -1,0 -2,0 -1,0 -2,0 -1,0 -1,0 0,-1 -1,0 -1,0 0,-1 -1,0 -1,0 -1,0 0,-1 -1,0 -1,0 -1,0 -1,0 -1,0 0,-1 -1,-1 0,-1 0,-1 1,0 0,-1 1,0 0,-1 1,0 0,-1 0,-1 -1,0 -3,0 -2,0 -1,0 -1,-1 -1,0 -1,0 -1,-1 -1,0 -1,0 0,-1 -1,0 -1,-1 -2,-1 0,-1 0,-1 0,-1 -1,-1 -1,0 -1,0 -1,0 -3,0 -1,1 -1,0 -1,0 -3,0 0,-1 -2,0 -1,-1 2,-3 -1,0 0,-1 -1,0 0,-1 1,-1 0,-1 0,-1 0,-1 1,0 1,0 0,-1 1,1 1,-1 1,0 0,-1 1,0 1,-1 1,0 0,-1 1,0 -1,0 0,-1 1,0 1,0 1,-1 0,-1 2,0 0,-1 1,-1 -1,-1 0,-1 0,-1 1,0 1,0 1,0 1,0 1,0 1,0 1,0 2,-1 1,0 2,1 1,0 1,0 1,0 1,0 1,0 1,0 1,0 1,0 1,0 1,0 0,-1 -1,-1 -1,-1 -1,0 -1,0 -1,0 0,-1 0,-1 2,0 1,1 1,0 2,1 1,0 1,0 2,0 0,-1 1,-1 2,0 1,0 1,-1 2,-1 1,0 1,0 1,0 1,0 0,1 1,-1 0,-1 2,0 1,-1 1,1 2,0 1,1"
             id="path209" />
          <path
             d="m 566,78 1,0 0,-1 1,0 1,0 1,-1 1,0 1,1 1,1 0,1 0,1 0,1 -1,1 -1,0 -2,0 -2,0 -9,-1 -7,-2 -1,0 -2,0 -2,0 -2,2 -4,0 -1,1 -1,0 0,1 1,0 0,1 -1,1 -1,0 0,1 -1,1 -1,1 0,1 0,1 1,1 1,0 1,0 1,0 1,2 0,1 0,1 -2,0 0,1 -1,1 1,0 0,1 1,1 1,0 2,-1 2,1 1,0 0,-1 1,0 1,1 1,1 -1,1 -1,1 -1,1 -1,0 -3,0 0,1 -1,1 0,1 -1,1 1,0 0,1 1,1 2,1 1,1 1,1 -1,2 -1,2 0,1 -1,0 -1,1 -1,0 0,1 1,1 0,1 1,0 1,1 2,2 3,1 1,0 0,1 0,1 0,1 0,1 -9,-3 0,-1 -1,0 0,-1 -1,0 -1,0 -1,0 0,1 -1,-1 -1,0 0,-1 -2,0 -1,-1 0,-1 0,-1 1,0 -1,0 0,-1 -1,0 0,-1 0,-1 0,-1 -1,-1 1,-1 0,-1 1,0 0,-1 -1,0 0,-1 1,0 0,-1 -1,-1 -1,0 0,-1 1,0 -1,0 1,-1 0,-1 0,-1 -1,0 0,-1 1,-2 0,-1 -2,-2 0,-2 -1,-2 0,-1 0,-2 -1,-1 -1,-1 0,-1 0,-1 1,0 0,-1 0,-1 0,-1 0,-1 1,0 1,0 1,0 1,-1 0,1 1,0 1,-2 -1,0 0,-1 1,-1 1,-1 1,-1 1,0 1,0 1,0 1,0 0,-1 1,0 0,-1 1,0 1,0 0,-1 1,0 0,-1 0,-1 1,0 0,-1 -1,0 0,-1 1,0 0,-1 1,0 1,0 2,0 1,0 2,0 1,0 2,0 1,0 1,1 0,1 1,1 1,1 1,1 3,2 2,0 2,1 1,0"
             id="path214" />
      </g>
    </g>
  </g>
  <g
     transform="matrix(5.03,0,0,5.03,-347.87,-223.87)"
     class="citiesGroupHolder"
     style="fill:#007F7F;fill-opacity:0.5;">
    <path
       d="m 140.515,150.737 c 0,3.542 -2.871,6.414 -6.414,6.414 -3.543,0 -6.414,-2.872 -6.414,-6.414 0,-3.543 2.871,-6.415 6.414,-6.415 3.543,0 6.414,2.872 6.414,6.415"
       class="citypath_1" id="1"/>
    <path
       d="m 114.39,105.648 c 0,2.793 -2.264,5.057 -5.057,5.057 -2.793,0 -5.057,-2.264 -5.057,-5.057 0,-2.793 2.264,-5.058 5.057,-5.058 2.793,0 5.057,2.265 5.057,5.058"
       class="citypath_2" id="2"/>
    <path
       d="m 171.275,113.59 c 0,2.394 -1.941,4.334 -4.334,4.334 -2.394,0 -4.335,-1.94 -4.335,-4.334 0,-2.394 1.941,-4.334 4.335,-4.334 2.393,0 4.334,1.94 4.334,4.334"
       class="citypath_3" id="3"/>
    <path
       d="m 113.181,96.8519 c 0,2.3471 -1.902,4.2501 -4.249,4.2501 -2.347,0 -4.25,-1.903 -4.25,-4.2501 0,-2.347 1.903,-4.2497 4.25,-4.2497 2.347,0 4.249,1.9027 4.249,4.2497"
       class="citypath_4" id="4"/>
    <path
       d="m 98.6731,100.339 c 0,2.236 -1.8125,4.049 -4.0484,4.049 -2.2359,0 -4.0485,-1.813 -4.0485,-4.049 0,-2.2356 1.8126,-4.0481 4.0485,-4.0481 2.2359,0 4.0484,1.8125 4.0484,4.0481"
       class="citypath_5" id="5"/>
    <path
       d="m 125.332,100.446 c 0,2.207 -1.789,3.997 -3.996,3.997 -2.207,0 -3.996,-1.79 -3.996,-3.997 0,-2.2068 1.789,-3.996 3.996,-3.996 2.207,0 3.996,1.7892 3.996,3.996"
       class="citypath_6" id="6"/>
    <path
       d="m 151.377,144.628 c 0,2.198 -1.781,3.98 -3.98,3.98 -2.198,0 -3.979,-1.782 -3.979,-3.98 0,-2.198 1.781,-3.98 3.979,-3.98 2.199,0 3.98,1.782 3.98,3.98"
       class="citypath_7" id="7"/>
    <path
       d="m 95.9968,116.994 c 0,2.054 -1.6644,3.718 -3.7175,3.718 -2.0532,0 -3.7176,-1.664 -3.7176,-3.718 0,-2.053 1.6644,-3.717 3.7176,-3.717 2.0531,0 3.7175,1.664 3.7175,3.717"
       class="citypath_8" id="8"/>
    <path
       d="m 139.366,97.1933 c 0,2.0535 -1.665,3.7177 -3.718,3.7177 -2.054,0 -3.719,-1.6642 -3.719,-3.7177 0,-2.0535 1.665,-3.7182 3.719,-3.7182 2.053,0 3.718,1.6647 3.718,3.7182"
       class="citypath_9" id="9"/>
    <path
       d="m 116.914,190.157 c 0,2.044 -1.657,3.701 -3.701,3.701 -2.044,0 -3.7,-1.657 -3.7,-3.701 0,-2.043 1.656,-3.7 3.7,-3.7 2.044,0 3.701,1.657 3.701,3.7"
       class="citypath_10" id="10"/>
    <path
       d="m 98.8246,120.699 c 0,1.87 -1.5166,3.387 -3.3874,3.387 -1.8709,0 -3.3875,-1.517 -3.3875,-3.387 0,-1.871 1.5166,-3.388 3.3875,-3.388 1.8708,0 3.3874,1.517 3.3874,3.388"
       class="citypath_11" id="11"/>
    <path
       d="m 123.647,95.4837 c 0,1.7759 -1.44,3.2156 -3.216,3.2156 -1.776,0 -3.215,-1.4397 -3.215,-3.2156 0,-1.7759 1.439,-3.2156 3.215,-3.2156 1.776,0 3.216,1.4397 3.216,3.2156"
       class="citypath_12" id="12"/>
    <path
       d="m 120.737,87.7554 c 0,1.7543 -1.422,3.1765 -3.176,3.1765 -1.754,0 -3.177,-1.4222 -3.177,-3.1765 0,-1.7543 1.423,-3.1765 3.177,-3.1765 1.754,0 3.176,1.4222 3.176,3.1765"
       class="citypath_13" id="13"/>
    <path
       d="m 126,146.186 c 0,1.707 -1.384,3.09 -3.091,3.09 -1.706,0 -3.09,-1.383 -3.09,-3.09 0,-1.707 1.384,-3.091 3.09,-3.091 1.707,0 3.091,1.384 3.091,3.091"
       class="citypath_14" id="14"/>
    <path
       d="m 119.869,89.103 c 0,1.6637 -1.348,3.0125 -3.012,3.0125 -1.664,0 -3.013,-1.3488 -3.013,-3.0125 0,-1.6638 1.349,-3.0125 3.013,-3.0125 1.664,0 3.012,1.3487 3.012,3.0125"
       class="citypath_15" id="15"/>
    <path
       d="m 160.396,103.591 c 0,1.665 -1.35,3.014 -3.014,3.014 -1.665,0 -3.014,-1.349 -3.014,-3.014 0,-1.665 1.349,-3.014 3.014,-3.014 1.664,0 3.014,1.349 3.014,3.014"
       class="citypath_16" id="16"/>
    <path
       d="m 86.1397,120.715 c 0,1.669 -1.3528,3.022 -3.0216,3.022 -1.6687,0 -3.0216,-1.353 -3.0216,-3.022 0,-1.668 1.3529,-3.021 3.0216,-3.021 1.6688,0 3.0216,1.353 3.0216,3.021"
       class="citypath_17" id="17"/>
    <path
       d="m 119.347,87.9307 c 0,1.6407 -1.33,2.9707 -2.971,2.9707 -1.641,0 -2.971,-1.33 -2.971,-2.9707 0,-1.6407 1.33,-2.9707 2.971,-2.9707 1.641,0 2.971,1.33 2.971,2.9707"
       class="citypath_18" id="18"/>
    <path
       d="m 148.994,105.11 c 0,1.574 -1.275,2.849 -2.849,2.849 -1.574,0 -2.85,-1.275 -2.85,-2.849 0,-1.574 1.276,-2.85 2.85,-2.85 1.574,0 2.849,1.276 2.849,2.85"
       class="citypath_19" id="19"/>
    <path
       d="m 120.203,115.765 c 0,1.577 -1.279,2.855 -2.855,2.855 -1.577,0 -2.855,-1.278 -2.855,-2.855 0,-1.577 1.278,-2.855 2.855,-2.855 1.576,0 2.855,1.278 2.855,2.855"
       class="citypath_20" id="20"/>
    <path
       d="m 142.838,104.498 c 0,1.398 -1.134,2.532 -2.532,2.532 -1.398,0 -2.532,-1.134 -2.532,-2.532 0,-1.398 1.134,-2.532 2.532,-2.532 1.398,0 2.532,1.134 2.532,2.532"
       class="citypath_21" id="21"/>
    <path
       d="m 140.451,126.385 c 0,1.422 -1.152,2.574 -2.574,2.574 -1.421,0 -2.574,-1.152 -2.574,-2.574 0,-1.421 1.153,-2.573 2.574,-2.573 1.422,0 2.574,1.152 2.574,2.573"
       class="citypath_22" id="22"/>
    <path
       d="m 141.725,126.165 c 0,1.404 -1.138,2.541 -2.541,2.541 -1.403,0 -2.541,-1.137 -2.541,-2.541 0,-1.403 1.138,-2.54 2.541,-2.54 1.403,0 2.541,1.137 2.541,2.54"
       class="citypath_23" id="23"/>
    <path
       d="m 109.153,133.286 c 0,1.392 -1.129,2.52 -2.52,2.52 -1.392,0 -2.52,-1.128 -2.52,-2.52 0,-1.391 1.128,-2.519 2.52,-2.519 1.391,0 2.52,1.128 2.52,2.519"
       class="citypath_24" id="24"/>
    <path
       d="m 95.9381,126.586 c 0,1.278 -1.0361,2.314 -2.3141,2.314 -1.278,0 -2.3141,-1.036 -2.3141,-2.314 0,-1.278 1.0361,-2.314 2.3141,-2.314 1.278,0 2.3141,1.036 2.3141,2.314"
       class="citypath_25" id="25"/>
    <path
       d="m 100.995,132.658 c 0,1.329 -1.0776,2.407 -2.4065,2.407 -1.329,0 -2.4063,-1.078 -2.4063,-2.407 0,-1.328 1.0773,-2.406 2.4063,-2.406 1.3289,0 2.4065,1.078 2.4065,2.406"
       class="citypath_26" id="26"/>
    <path
       d="m 111.688,118.563 c 0,1.321 -1.071,2.392 -2.392,2.392 -1.32,0 -2.391,-1.071 -2.391,-2.392 0,-1.321 1.071,-2.392 2.391,-2.392 1.321,0 2.392,1.071 2.392,2.392"
       class="citypath_27" id="27"/>
    <path
       d="m 165.086,118.123 c 0,1.227 -0.994,2.221 -2.221,2.221 -1.227,0 -2.222,-0.994 -2.222,-2.221 0,-1.227 0.995,-2.222 2.222,-2.222 1.227,0 2.221,0.995 2.221,2.222"
       class="citypath_28" id="28"/>
    <path
       d="m 116.14,77.0654 c 0,1.1439 -0.927,2.0712 -2.071,2.0712 -1.144,0 -2.071,-0.9273 -2.071,-2.0712 0,-1.1439 0.927,-2.0713 2.071,-2.0713 1.144,0 2.071,0.9274 2.071,2.0713"
       class="citypath_29" id="29"/>
    <path
       d="m 111.376,76.1989 c 0,1.1499 -0.932,2.082 -2.082,2.082 -1.15,0 -2.082,-0.9321 -2.082,-2.082 0,-1.1499 0.932,-2.0821 2.082,-2.0821 1.15,0 2.082,0.9322 2.082,2.0821"
       class="citypath_30" id="30"/>
    <path
       d="m 132.511,116.248 c 0,1.166 -0.945,2.111 -2.111,2.111 -1.165,0 -2.11,-0.945 -2.11,-2.111 0,-1.166 0.945,-2.111 2.11,-2.111 1.166,0 2.111,0.945 2.111,2.111"
       class="citypath_31" id="31"/>
    <path
       d="m 106.259,72.4032 c 0,1.1406 -0.925,2.0652 -2.065,2.0652 -1.141,0 -2.066,-0.9246 -2.066,-2.0652 0,-1.1405 0.925,-2.0651 2.066,-2.0651 1.14,0 2.065,0.9246 2.065,2.0651"
       class="citypath_32" id="32"/>
    <path
       d="m 128.113,126.712 c 0,1.154 -0.935,2.089 -2.089,2.089 -1.154,0 -2.089,-0.935 -2.089,-2.089 0,-1.154 0.935,-2.089 2.089,-2.089 1.154,0 2.089,0.935 2.089,2.089"
       class="citypath_33" id="33"/>
    <path
       d="m 117.142,192.263 c 0,1.176 -0.954,2.129 -2.13,2.129 -1.176,0 -2.129,-0.953 -2.129,-2.129 0,-1.177 0.953,-2.13 2.129,-2.13 1.176,0 2.13,0.953 2.13,2.13"
       class="citypath_34" id="34"/>
    <path
       d="m 134.427,99.2469 c 0,1.0841 -0.879,1.9631 -1.963,1.9631 -1.084,0 -1.963,-0.879 -1.963,-1.9631 0,-1.0844 0.879,-1.9635 1.963,-1.9635 1.084,0 1.963,0.8791 1.963,1.9635"
       class="citypath_35" id="35"/>
    <path
       d="m 175.942,119.324 c 0,1.042 -0.845,1.887 -1.887,1.887 -1.042,0 -1.887,-0.845 -1.887,-1.887 0,-1.042 0.845,-1.887 1.887,-1.887 1.042,0 1.887,0.845 1.887,1.887"
       class="citypath_36" id="36"/>
    <path
       d="m 100.78,140.307 c 0,1.019 -0.8258,1.845 -1.8449,1.845 -1.0191,0 -1.8453,-0.826 -1.8453,-1.845 0,-1.019 0.8262,-1.846 1.8453,-1.846 1.0191,0 1.8449,0.827 1.8449,1.846"
       class="citypath_37" id="37"/>
    <path
       d="m 95.31,135.806 c 0,0.974 -0.7895,1.763 -1.7635,1.763 -0.9739,0 -1.7635,-0.789 -1.7635,-1.763 0,-0.974 0.7896,-1.764 1.7635,-1.764 0.974,0 1.7635,0.79 1.7635,1.764"
       class="citypath_38" id="38"/>
    <path
       d="m 110.726,177.908 c 0,1.011 -0.819,1.831 -1.83,1.831 -1.011,0 -1.83,-0.82 -1.83,-1.831 0,-1.01 0.819,-1.83 1.83,-1.83 1.011,0 1.83,0.82 1.83,1.83"
       class="citypath_39" id="39"/>
    <path
       d="m 112.979,181.694 c 0,1.014 -0.822,1.836 -1.836,1.836 -1.013,0 -1.835,-0.822 -1.835,-1.836 0,-1.014 0.822,-1.836 1.835,-1.836 1.014,0 1.836,0.822 1.836,1.836"
       class="citypath_40" id="40"/>
    <path
       d="m 122.773,184.814 c 0,0.974 -0.789,1.763 -1.763,1.763 -0.974,0 -1.764,-0.789 -1.764,-1.763 0,-0.974 0.79,-1.764 1.764,-1.764 0.974,0 1.763,0.79 1.763,1.764"
       class="citypath_41" id="41"/>
    <path
       d="m 105.488,59.7185 c 0,0.9291 -0.753,1.6823 -1.682,1.6823 -0.929,0 -1.683,-0.7532 -1.683,-1.6823 0,-0.9291 0.754,-1.6822 1.683,-1.6822 0.929,0 1.682,0.7531 1.682,1.6822"
       class="citypath_42" id="42"/>
    <path
       d="m 113.155,184.782 c 0,0.96 -0.778,1.738 -1.738,1.738 -0.96,0 -1.738,-0.778 -1.738,-1.738 0,-0.959 0.778,-1.737 1.738,-1.737 0.96,0 1.738,0.778 1.738,1.737"
       class="citypath_43" id="43"/>
    <path
       d="m 119.974,169.039 c 0,0.93 -0.754,1.684 -1.684,1.684 -0.93,0 -1.684,-0.754 -1.684,-1.684 0,-0.93 0.754,-1.684 1.684,-1.684 0.93,0 1.684,0.754 1.684,1.684"
       class="citypath_44" id="44"/>
    <path
       d="m 112.011,179.004 c 0,0.952 -0.772,1.723 -1.724,1.723 -0.951,0 -1.723,-0.771 -1.723,-1.723 0,-0.952 0.772,-1.723 1.723,-1.723 0.952,0 1.724,0.771 1.724,1.723"
       class="citypath_45" id="45"/>
    <path
       d="m 108.499,174.72 c 0,0.953 -0.773,1.726 -1.726,1.726 -0.954,0 -1.726,-0.773 -1.726,-1.726 0,-0.953 0.772,-1.726 1.726,-1.726 0.953,0 1.726,0.773 1.726,1.726"
       class="citypath_46" id="46"/>
    <path
       d="m 159.757,115.329 c 0,0.839 -0.679,1.518 -1.518,1.518 -0.838,0 -1.518,-0.679 -1.518,-1.518 0,-0.838 0.68,-1.518 1.518,-1.518 0.839,0 1.518,0.68 1.518,1.518"
       class="citypath_47" id="47"/>
    <path
       d="m 95.1439,137.43 c 0,0.706 -0.5724,1.279 -1.2786,1.279 -0.7062,0 -1.2787,-0.573 -1.2787,-1.279 0,-0.706 0.5725,-1.279 1.2787,-1.279 0.7062,0 1.2786,0.573 1.2786,1.279"
       class="citypath_48" id="48"/>
    <path
       d="m 133.039,168.583 c 0,0.622 -0.505,1.127 -1.127,1.127 -0.623,0 -1.127,-0.505 -1.127,-1.127 0,-0.623 0.504,-1.127 1.127,-1.127 0.622,0 1.127,0.504 1.127,1.127"
       class="citypath_49" id="49"/>
    <path
       d="m 125.145,180.333 c 0,0.611 -0.496,1.107 -1.107,1.107 -0.611,0 -1.107,-0.496 -1.107,-1.107 0,-0.611 0.496,-1.107 1.107,-1.107 0.611,0 1.107,0.496 1.107,1.107"
       class="citypath_50" id="50"/>
    <path
       d="m 116.038,179.161 c 0,0.583 -0.472,1.056 -1.055,1.056 -0.584,0 -1.056,-0.473 -1.056,-1.056 0,-0.583 0.472,-1.056 1.056,-1.056 0.583,0 1.055,0.473 1.055,1.056"
       class="citypath_51" id="51"/>
    <path
       d="m 164.981,112.991 c 0,0.518 -0.42,0.938 -0.938,0.938 -0.518,0 -0.938,-0.42 -0.938,-0.938 0,-0.518 0.42,-0.938 0.938,-0.938 0.518,0 0.938,0.42 0.938,0.938"
       class="citypath_52" id="52"/>
    <path
       d="m 118.869,86.1227 c 0,0 0,0 0,0 0,0 0,0 0,0 0,0 0,0 0,0 0,0 0,0 0,0"
       class="citypath_53" id="53"/>
  </g>
</svg>
